<?xml version="1.0" standalone="no"?>
 <!DOCTYPE svg PUBLIC "-//W3C//DTD SVG 1.1//EN" 
 "http://www.w3.org/Graphics/SVG/1.1/DTD/svg11.dtd"> 
<svg
  xmlns:svg="http://www.w3.org/2000/svg"
  xmlns="http://www.w3.org/2000/svg"
  xmlns:xlink="http://www.w3.org/1999/xlink"
  version="1.1"
  width="297.0022mm" height="210.0072mm" viewBox="0.0000 0.0000 297.0022 210.0072">
<title>SVG Image created as controller-User_Drawings.svg date 2023/03/26 21:47:53 </title>
  <desc>Image generated by PCBNEW </desc>
<g style="fill:#000000; fill-opacity:1.0000;stroke:#000000; stroke-opacity:1.0000;
stroke-linecap:round; stroke-linejoin:round;"
 transform="translate(0 0) scale(1 1)">
</g>
<g style="fill:#000000; fill-opacity:0.0; 
stroke:#000000; stroke-width:0.0000; stroke-opacity:1; 
stroke-linecap:round; stroke-linejoin:round;">
</g>
<g style="fill:#000000; fill-opacity:0.0; 
stroke:#000000; stroke-width:0.0212; stroke-opacity:1; 
stroke-linecap:round; stroke-linejoin:round;">
</g>
<g style="fill:#000000; fill-opacity:0.0; 
stroke:#000000; stroke-width:0.1500; stroke-opacity:1; 
stroke-linecap:round; stroke-linejoin:round;">
<path d="M177.0022 166.0072
L285.0022 166.0072
L285.0022 198.0072
L177.0022 198.0072
L177.0022 166.0072
" />
</g>
<g style="fill:#000000; fill-opacity:0.0; 
stroke:#000000; stroke-width:0.0212; stroke-opacity:1; 
stroke-linecap:round; stroke-linejoin:round;">
</g>
<g style="fill:#000000; fill-opacity:0.0; 
stroke:#000000; stroke-width:0.1500; stroke-opacity:1; 
stroke-linecap:round; stroke-linejoin:round;">
<path d="M10.0000 10.0000
L287.0022 10.0000
L287.0022 200.0072
L10.0000 200.0072
L10.0000 10.0000
" />
</g>
<g style="fill:#000000; fill-opacity:0.0; 
stroke:#000000; stroke-width:0.0212; stroke-opacity:1; 
stroke-linecap:round; stroke-linejoin:round;">
</g>
<g style="fill:#000000; fill-opacity:0.0; 
stroke:#000000; stroke-width:0.1500; stroke-opacity:1; 
stroke-linecap:round; stroke-linejoin:round;">
<path d="M12.0000 12.0000
L285.0022 12.0000
L285.0022 198.0072
L12.0000 198.0072
L12.0000 12.0000
" />
</g>
<g style="fill:#000000; fill-opacity:0.0; 
stroke:#000000; stroke-width:0.0212; stroke-opacity:1; 
stroke-linecap:round; stroke-linejoin:round;">
</g>
<g style="fill:#000000; fill-opacity:0.0; 
stroke:#000000; stroke-width:0.1500; stroke-opacity:1; 
stroke-linecap:round; stroke-linejoin:round;">
<path d="M60.0000 12.0000
L60.0000 10.0000
" />
</g>
<g style="fill:#000000; fill-opacity:0.0; 
stroke:#000000; stroke-width:0.0212; stroke-opacity:1; 
stroke-linecap:round; stroke-linejoin:round;">
</g>
<g style="fill:#000000; fill-opacity:0.0; 
stroke:#000000; stroke-width:0.1500; stroke-opacity:1; 
stroke-linecap:round; stroke-linejoin:round;">
<path d="M110.0000 12.0000
L110.0000 10.0000
" />
</g>
<g style="fill:#000000; fill-opacity:0.0; 
stroke:#000000; stroke-width:0.0212; stroke-opacity:1; 
stroke-linecap:round; stroke-linejoin:round;">
</g>
<g style="fill:#000000; fill-opacity:0.0; 
stroke:#000000; stroke-width:0.1500; stroke-opacity:1; 
stroke-linecap:round; stroke-linejoin:round;">
<path d="M160.0000 12.0000
L160.0000 10.0000
" />
</g>
<g style="fill:#000000; fill-opacity:0.0; 
stroke:#000000; stroke-width:0.0212; stroke-opacity:1; 
stroke-linecap:round; stroke-linejoin:round;">
</g>
<g style="fill:#000000; fill-opacity:0.0; 
stroke:#000000; stroke-width:0.1500; stroke-opacity:1; 
stroke-linecap:round; stroke-linejoin:round;">
<path d="M210.0000 12.0000
L210.0000 10.0000
" />
</g>
<g style="fill:#000000; fill-opacity:0.0; 
stroke:#000000; stroke-width:0.0212; stroke-opacity:1; 
stroke-linecap:round; stroke-linejoin:round;">
</g>
<g style="fill:#000000; fill-opacity:0.0; 
stroke:#000000; stroke-width:0.1500; stroke-opacity:1; 
stroke-linecap:round; stroke-linejoin:round;">
<path d="M260.0000 12.0000
L260.0000 10.0000
" />
</g>
<g style="fill:#000000; fill-opacity:0.0; 
stroke:#000000; stroke-width:0.0212; stroke-opacity:1; 
stroke-linecap:round; stroke-linejoin:round;">
</g>
<g style="fill:#000000; fill-opacity:0.0; 
stroke:#000000; stroke-width:0.1500; stroke-opacity:1; 
stroke-linecap:round; stroke-linejoin:round;">
<text x="35.0000" y="11.6500"
textLength="1.3531" font-size="1.7333" lengthAdjust="spacingAndGlyphs"
text-anchor="start" opacity="0">1</text>
<g class="stroked-text"><desc>1</desc>
<path d="M35.9905 11.6014
L35.2476 11.6014
" />
<path d="M35.6190 11.6014
L35.6190 10.3014
" />
<path d="M35.6190 10.3014
L35.4952 10.4871
" />
<path d="M35.4952 10.4871
L35.3714 10.6109
" />
<path d="M35.3714 10.6109
L35.2476 10.6728
" />
</g></g>
<g style="fill:#000000; fill-opacity:0.0; 
stroke:#000000; stroke-width:0.0212; stroke-opacity:1; 
stroke-linecap:round; stroke-linejoin:round;">
</g>
<g style="fill:#000000; fill-opacity:0.0; 
stroke:#000000; stroke-width:0.1500; stroke-opacity:1; 
stroke-linecap:round; stroke-linejoin:round;">
<text x="85.0000" y="11.6500"
textLength="1.3531" font-size="1.7333" lengthAdjust="spacingAndGlyphs"
text-anchor="start" opacity="0">2</text>
<g class="stroked-text"><desc>2</desc>
<path d="M85.2476 10.4252
L85.3095 10.3633
" />
<path d="M85.3095 10.3633
L85.4333 10.3014
" />
<path d="M85.4333 10.3014
L85.7429 10.3014
" />
<path d="M85.7429 10.3014
L85.8667 10.3633
" />
<path d="M85.8667 10.3633
L85.9286 10.4252
" />
<path d="M85.9286 10.4252
L85.9905 10.5490
" />
<path d="M85.9905 10.5490
L85.9905 10.6728
" />
<path d="M85.9905 10.6728
L85.9286 10.8585
" />
<path d="M85.9286 10.8585
L85.1857 11.6014
" />
<path d="M85.1857 11.6014
L85.9905 11.6014
" />
</g></g>
<g style="fill:#000000; fill-opacity:0.0; 
stroke:#000000; stroke-width:0.0212; stroke-opacity:1; 
stroke-linecap:round; stroke-linejoin:round;">
</g>
<g style="fill:#000000; fill-opacity:0.0; 
stroke:#000000; stroke-width:0.1500; stroke-opacity:1; 
stroke-linecap:round; stroke-linejoin:round;">
<text x="135.0000" y="11.6500"
textLength="1.3531" font-size="1.7333" lengthAdjust="spacingAndGlyphs"
text-anchor="start" opacity="0">3</text>
<g class="stroked-text"><desc>3</desc>
<path d="M135.1857 10.3014
L135.9905 10.3014
" />
<path d="M135.9905 10.3014
L135.5571 10.7966
" />
<path d="M135.5571 10.7966
L135.7429 10.7966
" />
<path d="M135.7429 10.7966
L135.8667 10.8585
" />
<path d="M135.8667 10.8585
L135.9286 10.9205
" />
<path d="M135.9286 10.9205
L135.9905 11.0443
" />
<path d="M135.9905 11.0443
L135.9905 11.3538
" />
<path d="M135.9905 11.3538
L135.9286 11.4776
" />
<path d="M135.9286 11.4776
L135.8667 11.5395
" />
<path d="M135.8667 11.5395
L135.7429 11.6014
" />
<path d="M135.7429 11.6014
L135.3714 11.6014
" />
<path d="M135.3714 11.6014
L135.2476 11.5395
" />
<path d="M135.2476 11.5395
L135.1857 11.4776
" />
</g></g>
<g style="fill:#000000; fill-opacity:0.0; 
stroke:#000000; stroke-width:0.0212; stroke-opacity:1; 
stroke-linecap:round; stroke-linejoin:round;">
</g>
<g style="fill:#000000; fill-opacity:0.0; 
stroke:#000000; stroke-width:0.1500; stroke-opacity:1; 
stroke-linecap:round; stroke-linejoin:round;">
<text x="185.0000" y="11.6500"
textLength="1.3531" font-size="1.7333" lengthAdjust="spacingAndGlyphs"
text-anchor="start" opacity="0">4</text>
<g class="stroked-text"><desc>4</desc>
<path d="M185.8667 10.7347
L185.8667 11.6014
" />
<path d="M185.5571 10.2395
L185.2476 11.1681
" />
<path d="M185.2476 11.1681
L186.0524 11.1681
" />
</g></g>
<g style="fill:#000000; fill-opacity:0.0; 
stroke:#000000; stroke-width:0.0212; stroke-opacity:1; 
stroke-linecap:round; stroke-linejoin:round;">
</g>
<g style="fill:#000000; fill-opacity:0.0; 
stroke:#000000; stroke-width:0.1500; stroke-opacity:1; 
stroke-linecap:round; stroke-linejoin:round;">
<text x="235.0000" y="11.6500"
textLength="1.3531" font-size="1.7333" lengthAdjust="spacingAndGlyphs"
text-anchor="start" opacity="0">5</text>
<g class="stroked-text"><desc>5</desc>
<path d="M235.9286 10.3014
L235.3095 10.3014
" />
<path d="M235.3095 10.3014
L235.2476 10.9205
" />
<path d="M235.2476 10.9205
L235.3095 10.8585
" />
<path d="M235.3095 10.8585
L235.4333 10.7966
" />
<path d="M235.4333 10.7966
L235.7429 10.7966
" />
<path d="M235.7429 10.7966
L235.8667 10.8585
" />
<path d="M235.8667 10.8585
L235.9286 10.9205
" />
<path d="M235.9286 10.9205
L235.9905 11.0443
" />
<path d="M235.9905 11.0443
L235.9905 11.3538
" />
<path d="M235.9905 11.3538
L235.9286 11.4776
" />
<path d="M235.9286 11.4776
L235.8667 11.5395
" />
<path d="M235.8667 11.5395
L235.7429 11.6014
" />
<path d="M235.7429 11.6014
L235.4333 11.6014
" />
<path d="M235.4333 11.6014
L235.3095 11.5395
" />
<path d="M235.3095 11.5395
L235.2476 11.4776
" />
</g></g>
<g style="fill:#000000; fill-opacity:0.0; 
stroke:#000000; stroke-width:0.0212; stroke-opacity:1; 
stroke-linecap:round; stroke-linejoin:round;">
</g>
<g style="fill:#000000; fill-opacity:0.0; 
stroke:#000000; stroke-width:0.1500; stroke-opacity:1; 
stroke-linecap:round; stroke-linejoin:round;">
<text x="285.0000" y="11.6500"
textLength="1.3531" font-size="1.7333" lengthAdjust="spacingAndGlyphs"
text-anchor="start" opacity="0">6</text>
<g class="stroked-text"><desc>6</desc>
<path d="M285.8667 10.3014
L285.6190 10.3014
" />
<path d="M285.6190 10.3014
L285.4952 10.3633
" />
<path d="M285.4952 10.3633
L285.4333 10.4252
" />
<path d="M285.4333 10.4252
L285.3095 10.6109
" />
<path d="M285.3095 10.6109
L285.2476 10.8585
" />
<path d="M285.2476 10.8585
L285.2476 11.3538
" />
<path d="M285.2476 11.3538
L285.3095 11.4776
" />
<path d="M285.3095 11.4776
L285.3714 11.5395
" />
<path d="M285.3714 11.5395
L285.4952 11.6014
" />
<path d="M285.4952 11.6014
L285.7429 11.6014
" />
<path d="M285.7429 11.6014
L285.8667 11.5395
" />
<path d="M285.8667 11.5395
L285.9286 11.4776
" />
<path d="M285.9286 11.4776
L285.9905 11.3538
" />
<path d="M285.9905 11.3538
L285.9905 11.0443
" />
<path d="M285.9905 11.0443
L285.9286 10.9205
" />
<path d="M285.9286 10.9205
L285.8667 10.8585
" />
<path d="M285.8667 10.8585
L285.7429 10.7966
" />
<path d="M285.7429 10.7966
L285.4952 10.7966
" />
<path d="M285.4952 10.7966
L285.3714 10.8585
" />
<path d="M285.3714 10.8585
L285.3095 10.9205
" />
<path d="M285.3095 10.9205
L285.2476 11.0443
" />
</g></g>
<g style="fill:#000000; fill-opacity:0.0; 
stroke:#000000; stroke-width:0.0212; stroke-opacity:1; 
stroke-linecap:round; stroke-linejoin:round;">
</g>
<g style="fill:#000000; fill-opacity:0.0; 
stroke:#000000; stroke-width:0.1500; stroke-opacity:1; 
stroke-linecap:round; stroke-linejoin:round;">
<path d="M60.0000 198.0072
L60.0000 200.0072
" />
</g>
<g style="fill:#000000; fill-opacity:0.0; 
stroke:#000000; stroke-width:0.0212; stroke-opacity:1; 
stroke-linecap:round; stroke-linejoin:round;">
</g>
<g style="fill:#000000; fill-opacity:0.0; 
stroke:#000000; stroke-width:0.1500; stroke-opacity:1; 
stroke-linecap:round; stroke-linejoin:round;">
<path d="M110.0000 198.0072
L110.0000 200.0072
" />
</g>
<g style="fill:#000000; fill-opacity:0.0; 
stroke:#000000; stroke-width:0.0212; stroke-opacity:1; 
stroke-linecap:round; stroke-linejoin:round;">
</g>
<g style="fill:#000000; fill-opacity:0.0; 
stroke:#000000; stroke-width:0.1500; stroke-opacity:1; 
stroke-linecap:round; stroke-linejoin:round;">
<path d="M160.0000 198.0072
L160.0000 200.0072
" />
</g>
<g style="fill:#000000; fill-opacity:0.0; 
stroke:#000000; stroke-width:0.0212; stroke-opacity:1; 
stroke-linecap:round; stroke-linejoin:round;">
</g>
<g style="fill:#000000; fill-opacity:0.0; 
stroke:#000000; stroke-width:0.1500; stroke-opacity:1; 
stroke-linecap:round; stroke-linejoin:round;">
<path d="M210.0000 198.0072
L210.0000 200.0072
" />
</g>
<g style="fill:#000000; fill-opacity:0.0; 
stroke:#000000; stroke-width:0.0212; stroke-opacity:1; 
stroke-linecap:round; stroke-linejoin:round;">
</g>
<g style="fill:#000000; fill-opacity:0.0; 
stroke:#000000; stroke-width:0.1500; stroke-opacity:1; 
stroke-linecap:round; stroke-linejoin:round;">
<path d="M260.0000 198.0072
L260.0000 200.0072
" />
</g>
<g style="fill:#000000; fill-opacity:0.0; 
stroke:#000000; stroke-width:0.0212; stroke-opacity:1; 
stroke-linecap:round; stroke-linejoin:round;">
</g>
<g style="fill:#000000; fill-opacity:0.0; 
stroke:#000000; stroke-width:0.1500; stroke-opacity:1; 
stroke-linecap:round; stroke-linejoin:round;">
<text x="35.0000" y="199.6572"
textLength="1.3531" font-size="1.7333" lengthAdjust="spacingAndGlyphs"
text-anchor="start" opacity="0">1</text>
<g class="stroked-text"><desc>1</desc>
<path d="M35.9905 199.6086
L35.2476 199.6086
" />
<path d="M35.6190 199.6086
L35.6190 198.3086
" />
<path d="M35.6190 198.3086
L35.4952 198.4943
" />
<path d="M35.4952 198.4943
L35.3714 198.6181
" />
<path d="M35.3714 198.6181
L35.2476 198.6800
" />
</g></g>
<g style="fill:#000000; fill-opacity:0.0; 
stroke:#000000; stroke-width:0.0212; stroke-opacity:1; 
stroke-linecap:round; stroke-linejoin:round;">
</g>
<g style="fill:#000000; fill-opacity:0.0; 
stroke:#000000; stroke-width:0.1500; stroke-opacity:1; 
stroke-linecap:round; stroke-linejoin:round;">
<text x="85.0000" y="199.6572"
textLength="1.3531" font-size="1.7333" lengthAdjust="spacingAndGlyphs"
text-anchor="start" opacity="0">2</text>
<g class="stroked-text"><desc>2</desc>
<path d="M85.2476 198.4324
L85.3095 198.3705
" />
<path d="M85.3095 198.3705
L85.4333 198.3086
" />
<path d="M85.4333 198.3086
L85.7429 198.3086
" />
<path d="M85.7429 198.3086
L85.8667 198.3705
" />
<path d="M85.8667 198.3705
L85.9286 198.4324
" />
<path d="M85.9286 198.4324
L85.9905 198.5562
" />
<path d="M85.9905 198.5562
L85.9905 198.6800
" />
<path d="M85.9905 198.6800
L85.9286 198.8657
" />
<path d="M85.9286 198.8657
L85.1857 199.6086
" />
<path d="M85.1857 199.6086
L85.9905 199.6086
" />
</g></g>
<g style="fill:#000000; fill-opacity:0.0; 
stroke:#000000; stroke-width:0.0212; stroke-opacity:1; 
stroke-linecap:round; stroke-linejoin:round;">
</g>
<g style="fill:#000000; fill-opacity:0.0; 
stroke:#000000; stroke-width:0.1500; stroke-opacity:1; 
stroke-linecap:round; stroke-linejoin:round;">
<text x="135.0000" y="199.6572"
textLength="1.3531" font-size="1.7333" lengthAdjust="spacingAndGlyphs"
text-anchor="start" opacity="0">3</text>
<g class="stroked-text"><desc>3</desc>
<path d="M135.1857 198.3086
L135.9905 198.3086
" />
<path d="M135.9905 198.3086
L135.5571 198.8038
" />
<path d="M135.5571 198.8038
L135.7429 198.8038
" />
<path d="M135.7429 198.8038
L135.8667 198.8657
" />
<path d="M135.8667 198.8657
L135.9286 198.9277
" />
<path d="M135.9286 198.9277
L135.9905 199.0515
" />
<path d="M135.9905 199.0515
L135.9905 199.3610
" />
<path d="M135.9905 199.3610
L135.9286 199.4848
" />
<path d="M135.9286 199.4848
L135.8667 199.5467
" />
<path d="M135.8667 199.5467
L135.7429 199.6086
" />
<path d="M135.7429 199.6086
L135.3714 199.6086
" />
<path d="M135.3714 199.6086
L135.2476 199.5467
" />
<path d="M135.2476 199.5467
L135.1857 199.4848
" />
</g></g>
<g style="fill:#000000; fill-opacity:0.0; 
stroke:#000000; stroke-width:0.0212; stroke-opacity:1; 
stroke-linecap:round; stroke-linejoin:round;">
</g>
<g style="fill:#000000; fill-opacity:0.0; 
stroke:#000000; stroke-width:0.1500; stroke-opacity:1; 
stroke-linecap:round; stroke-linejoin:round;">
<text x="185.0000" y="199.6572"
textLength="1.3531" font-size="1.7333" lengthAdjust="spacingAndGlyphs"
text-anchor="start" opacity="0">4</text>
<g class="stroked-text"><desc>4</desc>
<path d="M185.8667 198.7419
L185.8667 199.6086
" />
<path d="M185.5571 198.2467
L185.2476 199.1753
" />
<path d="M185.2476 199.1753
L186.0524 199.1753
" />
</g></g>
<g style="fill:#000000; fill-opacity:0.0; 
stroke:#000000; stroke-width:0.0212; stroke-opacity:1; 
stroke-linecap:round; stroke-linejoin:round;">
</g>
<g style="fill:#000000; fill-opacity:0.0; 
stroke:#000000; stroke-width:0.1500; stroke-opacity:1; 
stroke-linecap:round; stroke-linejoin:round;">
<text x="235.0000" y="199.6572"
textLength="1.3531" font-size="1.7333" lengthAdjust="spacingAndGlyphs"
text-anchor="start" opacity="0">5</text>
<g class="stroked-text"><desc>5</desc>
<path d="M235.9286 198.3086
L235.3095 198.3086
" />
<path d="M235.3095 198.3086
L235.2476 198.9277
" />
<path d="M235.2476 198.9277
L235.3095 198.8657
" />
<path d="M235.3095 198.8657
L235.4333 198.8038
" />
<path d="M235.4333 198.8038
L235.7429 198.8038
" />
<path d="M235.7429 198.8038
L235.8667 198.8657
" />
<path d="M235.8667 198.8657
L235.9286 198.9277
" />
<path d="M235.9286 198.9277
L235.9905 199.0515
" />
<path d="M235.9905 199.0515
L235.9905 199.3610
" />
<path d="M235.9905 199.3610
L235.9286 199.4848
" />
<path d="M235.9286 199.4848
L235.8667 199.5467
" />
<path d="M235.8667 199.5467
L235.7429 199.6086
" />
<path d="M235.7429 199.6086
L235.4333 199.6086
" />
<path d="M235.4333 199.6086
L235.3095 199.5467
" />
<path d="M235.3095 199.5467
L235.2476 199.4848
" />
</g></g>
<g style="fill:#000000; fill-opacity:0.0; 
stroke:#000000; stroke-width:0.0212; stroke-opacity:1; 
stroke-linecap:round; stroke-linejoin:round;">
</g>
<g style="fill:#000000; fill-opacity:0.0; 
stroke:#000000; stroke-width:0.1500; stroke-opacity:1; 
stroke-linecap:round; stroke-linejoin:round;">
<text x="285.0000" y="199.6572"
textLength="1.3531" font-size="1.7333" lengthAdjust="spacingAndGlyphs"
text-anchor="start" opacity="0">6</text>
<g class="stroked-text"><desc>6</desc>
<path d="M285.8667 198.3086
L285.6190 198.3086
" />
<path d="M285.6190 198.3086
L285.4952 198.3705
" />
<path d="M285.4952 198.3705
L285.4333 198.4324
" />
<path d="M285.4333 198.4324
L285.3095 198.6181
" />
<path d="M285.3095 198.6181
L285.2476 198.8657
" />
<path d="M285.2476 198.8657
L285.2476 199.3610
" />
<path d="M285.2476 199.3610
L285.3095 199.4848
" />
<path d="M285.3095 199.4848
L285.3714 199.5467
" />
<path d="M285.3714 199.5467
L285.4952 199.6086
" />
<path d="M285.4952 199.6086
L285.7429 199.6086
" />
<path d="M285.7429 199.6086
L285.8667 199.5467
" />
<path d="M285.8667 199.5467
L285.9286 199.4848
" />
<path d="M285.9286 199.4848
L285.9905 199.3610
" />
<path d="M285.9905 199.3610
L285.9905 199.0515
" />
<path d="M285.9905 199.0515
L285.9286 198.9277
" />
<path d="M285.9286 198.9277
L285.8667 198.8657
" />
<path d="M285.8667 198.8657
L285.7429 198.8038
" />
<path d="M285.7429 198.8038
L285.4952 198.8038
" />
<path d="M285.4952 198.8038
L285.3714 198.8657
" />
<path d="M285.3714 198.8657
L285.3095 198.9277
" />
<path d="M285.3095 198.9277
L285.2476 199.0515
" />
</g></g>
<g style="fill:#000000; fill-opacity:0.0; 
stroke:#000000; stroke-width:0.0212; stroke-opacity:1; 
stroke-linecap:round; stroke-linejoin:round;">
</g>
<g style="fill:#000000; fill-opacity:0.0; 
stroke:#000000; stroke-width:0.1500; stroke-opacity:1; 
stroke-linecap:round; stroke-linejoin:round;">
<path d="M10.0000 60.0000
L12.0000 60.0000
" />
</g>
<g style="fill:#000000; fill-opacity:0.0; 
stroke:#000000; stroke-width:0.0212; stroke-opacity:1; 
stroke-linecap:round; stroke-linejoin:round;">
</g>
<g style="fill:#000000; fill-opacity:0.0; 
stroke:#000000; stroke-width:0.1500; stroke-opacity:1; 
stroke-linecap:round; stroke-linejoin:round;">
<path d="M10.0000 110.0000
L12.0000 110.0000
" />
</g>
<g style="fill:#000000; fill-opacity:0.0; 
stroke:#000000; stroke-width:0.0212; stroke-opacity:1; 
stroke-linecap:round; stroke-linejoin:round;">
</g>
<g style="fill:#000000; fill-opacity:0.0; 
stroke:#000000; stroke-width:0.1500; stroke-opacity:1; 
stroke-linecap:round; stroke-linejoin:round;">
<path d="M10.0000 160.0000
L12.0000 160.0000
" />
</g>
<g style="fill:#000000; fill-opacity:0.0; 
stroke:#000000; stroke-width:0.0212; stroke-opacity:1; 
stroke-linecap:round; stroke-linejoin:round;">
</g>
<g style="fill:#000000; fill-opacity:0.0; 
stroke:#000000; stroke-width:0.1500; stroke-opacity:1; 
stroke-linecap:round; stroke-linejoin:round;">
<text x="11.0000" y="35.6500"
textLength="1.2293" font-size="1.7333" lengthAdjust="spacingAndGlyphs"
text-anchor="middle" opacity="0">A</text>
<g class="stroked-text"><desc>A</desc>
<path d="M10.6905 35.2300
L11.3095 35.2300
" />
<path d="M10.5667 35.6014
L11.0000 34.3014
" />
<path d="M11.0000 34.3014
L11.4333 35.6014
" />
</g></g>
<g style="fill:#000000; fill-opacity:0.0; 
stroke:#000000; stroke-width:0.0212; stroke-opacity:1; 
stroke-linecap:round; stroke-linejoin:round;">
</g>
<g style="fill:#000000; fill-opacity:0.0; 
stroke:#000000; stroke-width:0.1500; stroke-opacity:1; 
stroke-linecap:round; stroke-linejoin:round;">
<text x="11.0000" y="85.6500"
textLength="1.4150" font-size="1.7333" lengthAdjust="spacingAndGlyphs"
text-anchor="middle" opacity="0">B</text>
<g class="stroked-text"><desc>B</desc>
<path d="M11.0929 84.9205
L11.2786 84.9824
" />
<path d="M11.2786 84.9824
L11.3405 85.0443
" />
<path d="M11.3405 85.0443
L11.4024 85.1681
" />
<path d="M11.4024 85.1681
L11.4024 85.3538
" />
<path d="M11.4024 85.3538
L11.3405 85.4776
" />
<path d="M11.3405 85.4776
L11.2786 85.5395
" />
<path d="M11.2786 85.5395
L11.1548 85.6014
" />
<path d="M11.1548 85.6014
L10.6595 85.6014
" />
<path d="M10.6595 85.6014
L10.6595 84.3014
" />
<path d="M10.6595 84.3014
L11.0929 84.3014
" />
<path d="M11.0929 84.3014
L11.2167 84.3633
" />
<path d="M11.2167 84.3633
L11.2786 84.4252
" />
<path d="M11.2786 84.4252
L11.3405 84.5490
" />
<path d="M11.3405 84.5490
L11.3405 84.6728
" />
<path d="M11.3405 84.6728
L11.2786 84.7966
" />
<path d="M11.2786 84.7966
L11.2167 84.8585
" />
<path d="M11.2167 84.8585
L11.0929 84.9205
" />
<path d="M11.0929 84.9205
L10.6595 84.9205
" />
</g></g>
<g style="fill:#000000; fill-opacity:0.0; 
stroke:#000000; stroke-width:0.0212; stroke-opacity:1; 
stroke-linecap:round; stroke-linejoin:round;">
</g>
<g style="fill:#000000; fill-opacity:0.0; 
stroke:#000000; stroke-width:0.1500; stroke-opacity:1; 
stroke-linecap:round; stroke-linejoin:round;">
<text x="11.0000" y="135.6500"
textLength="1.4150" font-size="1.7333" lengthAdjust="spacingAndGlyphs"
text-anchor="middle" opacity="0">C</text>
<g class="stroked-text"><desc>C</desc>
<path d="M11.4024 135.4776
L11.3405 135.5395
" />
<path d="M11.3405 135.5395
L11.1548 135.6014
" />
<path d="M11.1548 135.6014
L11.0310 135.6014
" />
<path d="M11.0310 135.6014
L10.8452 135.5395
" />
<path d="M10.8452 135.5395
L10.7214 135.4157
" />
<path d="M10.7214 135.4157
L10.6595 135.2919
" />
<path d="M10.6595 135.2919
L10.5976 135.0443
" />
<path d="M10.5976 135.0443
L10.5976 134.8585
" />
<path d="M10.5976 134.8585
L10.6595 134.6109
" />
<path d="M10.6595 134.6109
L10.7214 134.4871
" />
<path d="M10.7214 134.4871
L10.8452 134.3633
" />
<path d="M10.8452 134.3633
L11.0310 134.3014
" />
<path d="M11.0310 134.3014
L11.1548 134.3014
" />
<path d="M11.1548 134.3014
L11.3405 134.3633
" />
<path d="M11.3405 134.3633
L11.4024 134.4252
" />
</g></g>
<g style="fill:#000000; fill-opacity:0.0; 
stroke:#000000; stroke-width:0.0212; stroke-opacity:1; 
stroke-linecap:round; stroke-linejoin:round;">
</g>
<g style="fill:#000000; fill-opacity:0.0; 
stroke:#000000; stroke-width:0.1500; stroke-opacity:1; 
stroke-linecap:round; stroke-linejoin:round;">
<text x="11.0000" y="185.6500"
textLength="1.4150" font-size="1.7333" lengthAdjust="spacingAndGlyphs"
text-anchor="middle" opacity="0">D</text>
<g class="stroked-text"><desc>D</desc>
<path d="M10.6595 185.6014
L10.6595 184.3014
" />
<path d="M10.6595 184.3014
L10.9690 184.3014
" />
<path d="M10.9690 184.3014
L11.1548 184.3633
" />
<path d="M11.1548 184.3633
L11.2786 184.4871
" />
<path d="M11.2786 184.4871
L11.3405 184.6109
" />
<path d="M11.3405 184.6109
L11.4024 184.8585
" />
<path d="M11.4024 184.8585
L11.4024 185.0443
" />
<path d="M11.4024 185.0443
L11.3405 185.2919
" />
<path d="M11.3405 185.2919
L11.2786 185.4157
" />
<path d="M11.2786 185.4157
L11.1548 185.5395
" />
<path d="M11.1548 185.5395
L10.9690 185.6014
" />
<path d="M10.9690 185.6014
L10.6595 185.6014
" />
</g></g>
<g style="fill:#000000; fill-opacity:0.0; 
stroke:#000000; stroke-width:0.0212; stroke-opacity:1; 
stroke-linecap:round; stroke-linejoin:round;">
</g>
<g style="fill:#000000; fill-opacity:0.0; 
stroke:#000000; stroke-width:0.1500; stroke-opacity:1; 
stroke-linecap:round; stroke-linejoin:round;">
<path d="M287.0022 60.0000
L285.0022 60.0000
" />
</g>
<g style="fill:#000000; fill-opacity:0.0; 
stroke:#000000; stroke-width:0.0212; stroke-opacity:1; 
stroke-linecap:round; stroke-linejoin:round;">
</g>
<g style="fill:#000000; fill-opacity:0.0; 
stroke:#000000; stroke-width:0.1500; stroke-opacity:1; 
stroke-linecap:round; stroke-linejoin:round;">
<path d="M287.0022 110.0000
L285.0022 110.0000
" />
</g>
<g style="fill:#000000; fill-opacity:0.0; 
stroke:#000000; stroke-width:0.0212; stroke-opacity:1; 
stroke-linecap:round; stroke-linejoin:round;">
</g>
<g style="fill:#000000; fill-opacity:0.0; 
stroke:#000000; stroke-width:0.1500; stroke-opacity:1; 
stroke-linecap:round; stroke-linejoin:round;">
<path d="M287.0022 160.0000
L285.0022 160.0000
" />
</g>
<g style="fill:#000000; fill-opacity:0.0; 
stroke:#000000; stroke-width:0.0212; stroke-opacity:1; 
stroke-linecap:round; stroke-linejoin:round;">
</g>
<g style="fill:#000000; fill-opacity:0.0; 
stroke:#000000; stroke-width:0.1500; stroke-opacity:1; 
stroke-linecap:round; stroke-linejoin:round;">
<text x="286.0022" y="35.6500"
textLength="1.2293" font-size="1.7333" lengthAdjust="spacingAndGlyphs"
text-anchor="middle" opacity="0">A</text>
<g class="stroked-text"><desc>A</desc>
<path d="M285.6927 35.2300
L286.3117 35.2300
" />
<path d="M285.5689 35.6014
L286.0022 34.3014
" />
<path d="M286.0022 34.3014
L286.4355 35.6014
" />
</g></g>
<g style="fill:#000000; fill-opacity:0.0; 
stroke:#000000; stroke-width:0.0212; stroke-opacity:1; 
stroke-linecap:round; stroke-linejoin:round;">
</g>
<g style="fill:#000000; fill-opacity:0.0; 
stroke:#000000; stroke-width:0.1500; stroke-opacity:1; 
stroke-linecap:round; stroke-linejoin:round;">
<text x="286.0022" y="85.6500"
textLength="1.4150" font-size="1.7333" lengthAdjust="spacingAndGlyphs"
text-anchor="middle" opacity="0">B</text>
<g class="stroked-text"><desc>B</desc>
<path d="M286.0951 84.9205
L286.2808 84.9824
" />
<path d="M286.2808 84.9824
L286.3427 85.0443
" />
<path d="M286.3427 85.0443
L286.4046 85.1681
" />
<path d="M286.4046 85.1681
L286.4046 85.3538
" />
<path d="M286.4046 85.3538
L286.3427 85.4776
" />
<path d="M286.3427 85.4776
L286.2808 85.5395
" />
<path d="M286.2808 85.5395
L286.1570 85.6014
" />
<path d="M286.1570 85.6014
L285.6617 85.6014
" />
<path d="M285.6617 85.6014
L285.6617 84.3014
" />
<path d="M285.6617 84.3014
L286.0951 84.3014
" />
<path d="M286.0951 84.3014
L286.2189 84.3633
" />
<path d="M286.2189 84.3633
L286.2808 84.4252
" />
<path d="M286.2808 84.4252
L286.3427 84.5490
" />
<path d="M286.3427 84.5490
L286.3427 84.6728
" />
<path d="M286.3427 84.6728
L286.2808 84.7966
" />
<path d="M286.2808 84.7966
L286.2189 84.8585
" />
<path d="M286.2189 84.8585
L286.0951 84.9205
" />
<path d="M286.0951 84.9205
L285.6617 84.9205
" />
</g></g>
<g style="fill:#000000; fill-opacity:0.0; 
stroke:#000000; stroke-width:0.0212; stroke-opacity:1; 
stroke-linecap:round; stroke-linejoin:round;">
</g>
<g style="fill:#000000; fill-opacity:0.0; 
stroke:#000000; stroke-width:0.1500; stroke-opacity:1; 
stroke-linecap:round; stroke-linejoin:round;">
<text x="286.0022" y="135.6500"
textLength="1.4150" font-size="1.7333" lengthAdjust="spacingAndGlyphs"
text-anchor="middle" opacity="0">C</text>
<g class="stroked-text"><desc>C</desc>
<path d="M286.4046 135.4776
L286.3427 135.5395
" />
<path d="M286.3427 135.5395
L286.1570 135.6014
" />
<path d="M286.1570 135.6014
L286.0332 135.6014
" />
<path d="M286.0332 135.6014
L285.8474 135.5395
" />
<path d="M285.8474 135.5395
L285.7236 135.4157
" />
<path d="M285.7236 135.4157
L285.6617 135.2919
" />
<path d="M285.6617 135.2919
L285.5998 135.0443
" />
<path d="M285.5998 135.0443
L285.5998 134.8585
" />
<path d="M285.5998 134.8585
L285.6617 134.6109
" />
<path d="M285.6617 134.6109
L285.7236 134.4871
" />
<path d="M285.7236 134.4871
L285.8474 134.3633
" />
<path d="M285.8474 134.3633
L286.0332 134.3014
" />
<path d="M286.0332 134.3014
L286.1570 134.3014
" />
<path d="M286.1570 134.3014
L286.3427 134.3633
" />
<path d="M286.3427 134.3633
L286.4046 134.4252
" />
</g></g>
<g style="fill:#000000; fill-opacity:0.0; 
stroke:#000000; stroke-width:0.0212; stroke-opacity:1; 
stroke-linecap:round; stroke-linejoin:round;">
</g>
<g style="fill:#000000; fill-opacity:0.0; 
stroke:#000000; stroke-width:0.1500; stroke-opacity:1; 
stroke-linecap:round; stroke-linejoin:round;">
<text x="286.0022" y="185.6500"
textLength="1.4150" font-size="1.7333" lengthAdjust="spacingAndGlyphs"
text-anchor="middle" opacity="0">D</text>
<g class="stroked-text"><desc>D</desc>
<path d="M285.6617 185.6014
L285.6617 184.3014
" />
<path d="M285.6617 184.3014
L285.9712 184.3014
" />
<path d="M285.9712 184.3014
L286.1570 184.3633
" />
<path d="M286.1570 184.3633
L286.2808 184.4871
" />
<path d="M286.2808 184.4871
L286.3427 184.6109
" />
<path d="M286.3427 184.6109
L286.4046 184.8585
" />
<path d="M286.4046 184.8585
L286.4046 185.0443
" />
<path d="M286.4046 185.0443
L286.3427 185.2919
" />
<path d="M286.3427 185.2919
L286.2808 185.4157
" />
<path d="M286.2808 185.4157
L286.1570 185.5395
" />
<path d="M286.1570 185.5395
L285.9712 185.6014
" />
<path d="M285.9712 185.6014
L285.6617 185.6014
" />
</g></g>
<g style="fill:#000000; fill-opacity:0.0; 
stroke:#000000; stroke-width:0.0212; stroke-opacity:1; 
stroke-linecap:round; stroke-linejoin:round;">
</g>
<g style="fill:#000000; fill-opacity:0.0; 
stroke:#000000; stroke-width:0.1500; stroke-opacity:1; 
stroke-linecap:round; stroke-linejoin:round;">
<text x="200.0022" y="193.8572"
textLength="6.9321" font-size="2.0000" lengthAdjust="spacingAndGlyphs"
text-anchor="start" opacity="0">Date: </text>
<g class="stroked-text"><desc>Date: </desc>
<path d="M200.3593 193.8011
L200.3593 192.3011
" />
<path d="M200.3593 192.3011
L200.7165 192.3011
" />
<path d="M200.7165 192.3011
L200.9308 192.3726
" />
<path d="M200.9308 192.3726
L201.0736 192.5154
" />
<path d="M201.0736 192.5154
L201.1451 192.6583
" />
<path d="M201.1451 192.6583
L201.2165 192.9440
" />
<path d="M201.2165 192.9440
L201.2165 193.1583
" />
<path d="M201.2165 193.1583
L201.1451 193.4440
" />
<path d="M201.1451 193.4440
L201.0736 193.5868
" />
<path d="M201.0736 193.5868
L200.9308 193.7297
" />
<path d="M200.9308 193.7297
L200.7165 193.8011
" />
<path d="M200.7165 193.8011
L200.3593 193.8011
" />
<path d="M202.5022 193.8011
L202.5022 193.0154
" />
<path d="M202.5022 193.0154
L202.4308 192.8726
" />
<path d="M202.4308 192.8726
L202.2879 192.8011
" />
<path d="M202.2879 192.8011
L202.0022 192.8011
" />
<path d="M202.0022 192.8011
L201.8593 192.8726
" />
<path d="M202.5022 193.7297
L202.3593 193.8011
" />
<path d="M202.3593 193.8011
L202.0022 193.8011
" />
<path d="M202.0022 193.8011
L201.8593 193.7297
" />
<path d="M201.8593 193.7297
L201.7879 193.5868
" />
<path d="M201.7879 193.5868
L201.7879 193.4440
" />
<path d="M201.7879 193.4440
L201.8593 193.3011
" />
<path d="M201.8593 193.3011
L202.0022 193.2297
" />
<path d="M202.0022 193.2297
L202.3593 193.2297
" />
<path d="M202.3593 193.2297
L202.5022 193.1583
" />
<path d="M203.0022 192.8011
L203.5736 192.8011
" />
<path d="M203.2165 192.3011
L203.2165 193.5868
" />
<path d="M203.2165 193.5868
L203.2879 193.7297
" />
<path d="M203.2879 193.7297
L203.4308 193.8011
" />
<path d="M203.4308 193.8011
L203.5736 193.8011
" />
<path d="M204.6451 193.7297
L204.5022 193.8011
" />
<path d="M204.5022 193.8011
L204.2165 193.8011
" />
<path d="M204.2165 193.8011
L204.0736 193.7297
" />
<path d="M204.0736 193.7297
L204.0022 193.5868
" />
<path d="M204.0022 193.5868
L204.0022 193.0154
" />
<path d="M204.0022 193.0154
L204.0736 192.8726
" />
<path d="M204.0736 192.8726
L204.2165 192.8011
" />
<path d="M204.2165 192.8011
L204.5022 192.8011
" />
<path d="M204.5022 192.8011
L204.6451 192.8726
" />
<path d="M204.6451 192.8726
L204.7165 193.0154
" />
<path d="M204.7165 193.0154
L204.7165 193.1583
" />
<path d="M204.7165 193.1583
L204.0022 193.3011
" />
<path d="M205.3593 193.6583
L205.4308 193.7297
" />
<path d="M205.4308 193.7297
L205.3593 193.8011
" />
<path d="M205.3593 193.8011
L205.2879 193.7297
" />
<path d="M205.2879 193.7297
L205.3593 193.6583
" />
<path d="M205.3593 193.6583
L205.3593 193.8011
" />
<path d="M205.3593 192.8726
L205.4308 192.9440
" />
<path d="M205.4308 192.9440
L205.3593 193.0154
" />
<path d="M205.3593 193.0154
L205.2879 192.9440
" />
<path d="M205.2879 192.9440
L205.3593 192.8726
" />
<path d="M205.3593 192.8726
L205.3593 193.0154
" />
</g></g>
<g style="fill:#000000; fill-opacity:0.0; 
stroke:#000000; stroke-width:0.0212; stroke-opacity:1; 
stroke-linecap:round; stroke-linejoin:round;">
</g>
<g style="fill:#000000; fill-opacity:0.0; 
stroke:#000000; stroke-width:0.1500; stroke-opacity:1; 
stroke-linecap:round; stroke-linejoin:round;">
<path d="M177.0022 194.5072
L285.0022 194.5072
" />
</g>
<g style="fill:#000000; fill-opacity:0.0; 
stroke:#000000; stroke-width:0.0212; stroke-opacity:1; 
stroke-linecap:round; stroke-linejoin:round;">
</g>
<g style="fill:#000000; fill-opacity:0.0; 
stroke:#000000; stroke-width:0.1500; stroke-opacity:1; 
stroke-linecap:round; stroke-linejoin:round;">
<text x="178.0022" y="196.6572"
textLength="29.0036" font-size="2.0000" lengthAdjust="spacingAndGlyphs"
text-anchor="start" opacity="0">KiCad E.D.A.  kicad 7.0.1</text>
<g class="stroked-text"><desc>KiCad E.D.A.  kicad 7.0.1</desc>
<path d="M178.3593 196.6011
L178.3593 195.1011
" />
<path d="M179.2165 196.6011
L178.5736 195.7440
" />
<path d="M179.2165 195.1011
L178.3593 195.9583
" />
<path d="M179.8593 196.6011
L179.8593 195.6011
" />
<path d="M179.8593 195.1011
L179.7879 195.1726
" />
<path d="M179.7879 195.1726
L179.8593 195.2440
" />
<path d="M179.8593 195.2440
L179.9308 195.1726
" />
<path d="M179.9308 195.1726
L179.8593 195.1011
" />
<path d="M179.8593 195.1011
L179.8593 195.2440
" />
<path d="M181.4308 196.4583
L181.3593 196.5297
" />
<path d="M181.3593 196.5297
L181.1451 196.6011
" />
<path d="M181.1451 196.6011
L181.0022 196.6011
" />
<path d="M181.0022 196.6011
L180.7879 196.5297
" />
<path d="M180.7879 196.5297
L180.6451 196.3868
" />
<path d="M180.6451 196.3868
L180.5736 196.2440
" />
<path d="M180.5736 196.2440
L180.5022 195.9583
" />
<path d="M180.5022 195.9583
L180.5022 195.7440
" />
<path d="M180.5022 195.7440
L180.5736 195.4583
" />
<path d="M180.5736 195.4583
L180.6451 195.3154
" />
<path d="M180.6451 195.3154
L180.7879 195.1726
" />
<path d="M180.7879 195.1726
L181.0022 195.1011
" />
<path d="M181.0022 195.1011
L181.1451 195.1011
" />
<path d="M181.1451 195.1011
L181.3593 195.1726
" />
<path d="M181.3593 195.1726
L181.4308 195.2440
" />
<path d="M182.7165 196.6011
L182.7165 195.8154
" />
<path d="M182.7165 195.8154
L182.6451 195.6726
" />
<path d="M182.6451 195.6726
L182.5022 195.6011
" />
<path d="M182.5022 195.6011
L182.2165 195.6011
" />
<path d="M182.2165 195.6011
L182.0736 195.6726
" />
<path d="M182.7165 196.5297
L182.5736 196.6011
" />
<path d="M182.5736 196.6011
L182.2165 196.6011
" />
<path d="M182.2165 196.6011
L182.0736 196.5297
" />
<path d="M182.0736 196.5297
L182.0022 196.3868
" />
<path d="M182.0022 196.3868
L182.0022 196.2440
" />
<path d="M182.0022 196.2440
L182.0736 196.1011
" />
<path d="M182.0736 196.1011
L182.2165 196.0297
" />
<path d="M182.2165 196.0297
L182.5736 196.0297
" />
<path d="M182.5736 196.0297
L182.7165 195.9583
" />
<path d="M184.0736 196.6011
L184.0736 195.1011
" />
<path d="M184.0736 196.5297
L183.9308 196.6011
" />
<path d="M183.9308 196.6011
L183.6451 196.6011
" />
<path d="M183.6451 196.6011
L183.5022 196.5297
" />
<path d="M183.5022 196.5297
L183.4308 196.4583
" />
<path d="M183.4308 196.4583
L183.3593 196.3154
" />
<path d="M183.3593 196.3154
L183.3593 195.8868
" />
<path d="M183.3593 195.8868
L183.4308 195.7440
" />
<path d="M183.4308 195.7440
L183.5022 195.6726
" />
<path d="M183.5022 195.6726
L183.6451 195.6011
" />
<path d="M183.6451 195.6011
L183.9308 195.6011
" />
<path d="M183.9308 195.6011
L184.0736 195.6726
" />
<path d="M185.9308 195.8154
L186.4308 195.8154
" />
<path d="M186.6451 196.6011
L185.9308 196.6011
" />
<path d="M185.9308 196.6011
L185.9308 195.1011
" />
<path d="M185.9308 195.1011
L186.6451 195.1011
" />
<path d="M187.2879 196.4583
L187.3593 196.5297
" />
<path d="M187.3593 196.5297
L187.2879 196.6011
" />
<path d="M187.2879 196.6011
L187.2165 196.5297
" />
<path d="M187.2165 196.5297
L187.2879 196.4583
" />
<path d="M187.2879 196.4583
L187.2879 196.6011
" />
<path d="M188.0022 196.6011
L188.0022 195.1011
" />
<path d="M188.0022 195.1011
L188.3593 195.1011
" />
<path d="M188.3593 195.1011
L188.5736 195.1726
" />
<path d="M188.5736 195.1726
L188.7165 195.3154
" />
<path d="M188.7165 195.3154
L188.7879 195.4583
" />
<path d="M188.7879 195.4583
L188.8593 195.7440
" />
<path d="M188.8593 195.7440
L188.8593 195.9583
" />
<path d="M188.8593 195.9583
L188.7879 196.2440
" />
<path d="M188.7879 196.2440
L188.7165 196.3868
" />
<path d="M188.7165 196.3868
L188.5736 196.5297
" />
<path d="M188.5736 196.5297
L188.3593 196.6011
" />
<path d="M188.3593 196.6011
L188.0022 196.6011
" />
<path d="M189.5022 196.4583
L189.5736 196.5297
" />
<path d="M189.5736 196.5297
L189.5022 196.6011
" />
<path d="M189.5022 196.6011
L189.4308 196.5297
" />
<path d="M189.4308 196.5297
L189.5022 196.4583
" />
<path d="M189.5022 196.4583
L189.5022 196.6011
" />
<path d="M190.1451 196.1726
L190.8593 196.1726
" />
<path d="M190.0022 196.6011
L190.5022 195.1011
" />
<path d="M190.5022 195.1011
L191.0022 196.6011
" />
<path d="M191.5022 196.4583
L191.5736 196.5297
" />
<path d="M191.5736 196.5297
L191.5022 196.6011
" />
<path d="M191.5022 196.6011
L191.4308 196.5297
" />
<path d="M191.4308 196.5297
L191.5022 196.4583
" />
<path d="M191.5022 196.4583
L191.5022 196.6011
" />
<path d="M194.5022 196.6011
L194.5022 195.1011
" />
<path d="M194.6451 196.0297
L195.0736 196.6011
" />
<path d="M195.0736 195.6011
L194.5022 196.1726
" />
<path d="M195.7165 196.6011
L195.7165 195.6011
" />
<path d="M195.7165 195.1011
L195.6451 195.1726
" />
<path d="M195.6451 195.1726
L195.7165 195.2440
" />
<path d="M195.7165 195.2440
L195.7879 195.1726
" />
<path d="M195.7879 195.1726
L195.7165 195.1011
" />
<path d="M195.7165 195.1011
L195.7165 195.2440
" />
<path d="M197.0736 196.5297
L196.9308 196.6011
" />
<path d="M196.9308 196.6011
L196.6451 196.6011
" />
<path d="M196.6451 196.6011
L196.5022 196.5297
" />
<path d="M196.5022 196.5297
L196.4308 196.4583
" />
<path d="M196.4308 196.4583
L196.3593 196.3154
" />
<path d="M196.3593 196.3154
L196.3593 195.8868
" />
<path d="M196.3593 195.8868
L196.4308 195.7440
" />
<path d="M196.4308 195.7440
L196.5022 195.6726
" />
<path d="M196.5022 195.6726
L196.6451 195.6011
" />
<path d="M196.6451 195.6011
L196.9308 195.6011
" />
<path d="M196.9308 195.6011
L197.0736 195.6726
" />
<path d="M198.3593 196.6011
L198.3593 195.8154
" />
<path d="M198.3593 195.8154
L198.2879 195.6726
" />
<path d="M198.2879 195.6726
L198.1451 195.6011
" />
<path d="M198.1451 195.6011
L197.8593 195.6011
" />
<path d="M197.8593 195.6011
L197.7165 195.6726
" />
<path d="M198.3593 196.5297
L198.2165 196.6011
" />
<path d="M198.2165 196.6011
L197.8593 196.6011
" />
<path d="M197.8593 196.6011
L197.7165 196.5297
" />
<path d="M197.7165 196.5297
L197.6451 196.3868
" />
<path d="M197.6451 196.3868
L197.6451 196.2440
" />
<path d="M197.6451 196.2440
L197.7165 196.1011
" />
<path d="M197.7165 196.1011
L197.8593 196.0297
" />
<path d="M197.8593 196.0297
L198.2165 196.0297
" />
<path d="M198.2165 196.0297
L198.3593 195.9583
" />
<path d="M199.7165 196.6011
L199.7165 195.1011
" />
<path d="M199.7165 196.5297
L199.5736 196.6011
" />
<path d="M199.5736 196.6011
L199.2879 196.6011
" />
<path d="M199.2879 196.6011
L199.1451 196.5297
" />
<path d="M199.1451 196.5297
L199.0736 196.4583
" />
<path d="M199.0736 196.4583
L199.0022 196.3154
" />
<path d="M199.0022 196.3154
L199.0022 195.8868
" />
<path d="M199.0022 195.8868
L199.0736 195.7440
" />
<path d="M199.0736 195.7440
L199.1451 195.6726
" />
<path d="M199.1451 195.6726
L199.2879 195.6011
" />
<path d="M199.2879 195.6011
L199.5736 195.6011
" />
<path d="M199.5736 195.6011
L199.7165 195.6726
" />
<path d="M201.4308 195.1011
L202.4308 195.1011
" />
<path d="M202.4308 195.1011
L201.7879 196.6011
" />
<path d="M203.0022 196.4583
L203.0736 196.5297
" />
<path d="M203.0736 196.5297
L203.0022 196.6011
" />
<path d="M203.0022 196.6011
L202.9308 196.5297
" />
<path d="M202.9308 196.5297
L203.0022 196.4583
" />
<path d="M203.0022 196.4583
L203.0022 196.6011
" />
<path d="M204.0022 195.1011
L204.1451 195.1011
" />
<path d="M204.1451 195.1011
L204.2879 195.1726
" />
<path d="M204.2879 195.1726
L204.3593 195.2440
" />
<path d="M204.3593 195.2440
L204.4308 195.3868
" />
<path d="M204.4308 195.3868
L204.5022 195.6726
" />
<path d="M204.5022 195.6726
L204.5022 196.0297
" />
<path d="M204.5022 196.0297
L204.4308 196.3154
" />
<path d="M204.4308 196.3154
L204.3593 196.4583
" />
<path d="M204.3593 196.4583
L204.2879 196.5297
" />
<path d="M204.2879 196.5297
L204.1451 196.6011
" />
<path d="M204.1451 196.6011
L204.0022 196.6011
" />
<path d="M204.0022 196.6011
L203.8593 196.5297
" />
<path d="M203.8593 196.5297
L203.7879 196.4583
" />
<path d="M203.7879 196.4583
L203.7165 196.3154
" />
<path d="M203.7165 196.3154
L203.6451 196.0297
" />
<path d="M203.6451 196.0297
L203.6451 195.6726
" />
<path d="M203.6451 195.6726
L203.7165 195.3868
" />
<path d="M203.7165 195.3868
L203.7879 195.2440
" />
<path d="M203.7879 195.2440
L203.8593 195.1726
" />
<path d="M203.8593 195.1726
L204.0022 195.1011
" />
<path d="M205.1451 196.4583
L205.2165 196.5297
" />
<path d="M205.2165 196.5297
L205.1451 196.6011
" />
<path d="M205.1451 196.6011
L205.0736 196.5297
" />
<path d="M205.0736 196.5297
L205.1451 196.4583
" />
<path d="M205.1451 196.4583
L205.1451 196.6011
" />
<path d="M206.6451 196.6011
L205.7879 196.6011
" />
<path d="M206.2165 196.6011
L206.2165 195.1011
" />
<path d="M206.2165 195.1011
L206.0736 195.3154
" />
<path d="M206.0736 195.3154
L205.9308 195.4583
" />
<path d="M205.9308 195.4583
L205.7879 195.5297
" />
</g></g>
<g style="fill:#000000; fill-opacity:0.0; 
stroke:#000000; stroke-width:0.0212; stroke-opacity:1; 
stroke-linecap:round; stroke-linejoin:round;">
</g>
<g style="fill:#000000; fill-opacity:0.0; 
stroke:#000000; stroke-width:0.1500; stroke-opacity:1; 
stroke-linecap:round; stroke-linejoin:round;">
<path d="M177.0022 191.5072
L285.0022 191.5072
" />
</g>
<g style="fill:#000000; fill-opacity:0.0; 
stroke:#000000; stroke-width:0.0212; stroke-opacity:1; 
stroke-linecap:round; stroke-linejoin:round;">
</g>
<g style="fill:#000000; fill-opacity:0.0; 
stroke:#000000; stroke-width:0.3000; stroke-opacity:1; 
stroke-linecap:round; stroke-linejoin:round;">
<text x="263.0022" y="193.8572"
textLength="6.2357" font-size="2.0000" lengthAdjust="spacingAndGlyphs"
text-anchor="start" opacity="0">Rev: </text>
<g class="stroked-text"><desc>Rev: </desc>
<path d="M264.2165 193.8011
L263.7165 193.0868
" />
<path d="M263.3593 193.8011
L263.3593 192.3011
" />
<path d="M263.3593 192.3011
L263.9308 192.3011
" />
<path d="M263.9308 192.3011
L264.0736 192.3726
" />
<path d="M264.0736 192.3726
L264.1451 192.4440
" />
<path d="M264.1451 192.4440
L264.2165 192.5868
" />
<path d="M264.2165 192.5868
L264.2165 192.8011
" />
<path d="M264.2165 192.8011
L264.1451 192.9440
" />
<path d="M264.1451 192.9440
L264.0736 193.0154
" />
<path d="M264.0736 193.0154
L263.9308 193.0868
" />
<path d="M263.9308 193.0868
L263.3593 193.0868
" />
<path d="M265.4308 193.7297
L265.2879 193.8011
" />
<path d="M265.2879 193.8011
L265.0022 193.8011
" />
<path d="M265.0022 193.8011
L264.8593 193.7297
" />
<path d="M264.8593 193.7297
L264.7879 193.5868
" />
<path d="M264.7879 193.5868
L264.7879 193.0154
" />
<path d="M264.7879 193.0154
L264.8593 192.8726
" />
<path d="M264.8593 192.8726
L265.0022 192.8011
" />
<path d="M265.0022 192.8011
L265.2879 192.8011
" />
<path d="M265.2879 192.8011
L265.4308 192.8726
" />
<path d="M265.4308 192.8726
L265.5022 193.0154
" />
<path d="M265.5022 193.0154
L265.5022 193.1583
" />
<path d="M265.5022 193.1583
L264.7879 193.3011
" />
<path d="M266.0022 192.8011
L266.3593 193.8011
" />
<path d="M266.3593 193.8011
L266.7165 192.8011
" />
<path d="M267.2879 193.6583
L267.3593 193.7297
" />
<path d="M267.3593 193.7297
L267.2879 193.8011
" />
<path d="M267.2879 193.8011
L267.2165 193.7297
" />
<path d="M267.2165 193.7297
L267.2879 193.6583
" />
<path d="M267.2879 193.6583
L267.2879 193.8011
" />
<path d="M267.2879 192.8726
L267.3593 192.9440
" />
<path d="M267.3593 192.9440
L267.2879 193.0154
" />
<path d="M267.2879 193.0154
L267.2165 192.9440
" />
<path d="M267.2165 192.9440
L267.2879 192.8726
" />
<path d="M267.2879 192.8726
L267.2879 193.0154
" />
</g></g>
<g style="fill:#000000; fill-opacity:0.0; 
stroke:#000000; stroke-width:0.0212; stroke-opacity:1; 
stroke-linecap:round; stroke-linejoin:round;">
</g>
<g style="fill:#000000; fill-opacity:0.0; 
stroke:#000000; stroke-width:0.1500; stroke-opacity:1; 
stroke-linecap:round; stroke-linejoin:round;">
<text x="178.0022" y="193.8572"
textLength="9.2893" font-size="2.0000" lengthAdjust="spacingAndGlyphs"
text-anchor="start" opacity="0">Size: A4</text>
<g class="stroked-text"><desc>Size: A4</desc>
<path d="M178.2879 193.7297
L178.5022 193.8011
" />
<path d="M178.5022 193.8011
L178.8593 193.8011
" />
<path d="M178.8593 193.8011
L179.0022 193.7297
" />
<path d="M179.0022 193.7297
L179.0736 193.6583
" />
<path d="M179.0736 193.6583
L179.1451 193.5154
" />
<path d="M179.1451 193.5154
L179.1451 193.3726
" />
<path d="M179.1451 193.3726
L179.0736 193.2297
" />
<path d="M179.0736 193.2297
L179.0022 193.1583
" />
<path d="M179.0022 193.1583
L178.8593 193.0868
" />
<path d="M178.8593 193.0868
L178.5736 193.0154
" />
<path d="M178.5736 193.0154
L178.4308 192.9440
" />
<path d="M178.4308 192.9440
L178.3593 192.8726
" />
<path d="M178.3593 192.8726
L178.2879 192.7297
" />
<path d="M178.2879 192.7297
L178.2879 192.5868
" />
<path d="M178.2879 192.5868
L178.3593 192.4440
" />
<path d="M178.3593 192.4440
L178.4308 192.3726
" />
<path d="M178.4308 192.3726
L178.5736 192.3011
" />
<path d="M178.5736 192.3011
L178.9308 192.3011
" />
<path d="M178.9308 192.3011
L179.1451 192.3726
" />
<path d="M179.7879 193.8011
L179.7879 192.8011
" />
<path d="M179.7879 192.3011
L179.7165 192.3726
" />
<path d="M179.7165 192.3726
L179.7879 192.4440
" />
<path d="M179.7879 192.4440
L179.8593 192.3726
" />
<path d="M179.8593 192.3726
L179.7879 192.3011
" />
<path d="M179.7879 192.3011
L179.7879 192.4440
" />
<path d="M180.3593 192.8011
L181.1451 192.8011
" />
<path d="M181.1451 192.8011
L180.3593 193.8011
" />
<path d="M180.3593 193.8011
L181.1451 193.8011
" />
<path d="M182.2879 193.7297
L182.1451 193.8011
" />
<path d="M182.1451 193.8011
L181.8593 193.8011
" />
<path d="M181.8593 193.8011
L181.7165 193.7297
" />
<path d="M181.7165 193.7297
L181.6451 193.5868
" />
<path d="M181.6451 193.5868
L181.6451 193.0154
" />
<path d="M181.6451 193.0154
L181.7165 192.8726
" />
<path d="M181.7165 192.8726
L181.8593 192.8011
" />
<path d="M181.8593 192.8011
L182.1451 192.8011
" />
<path d="M182.1451 192.8011
L182.2879 192.8726
" />
<path d="M182.2879 192.8726
L182.3593 193.0154
" />
<path d="M182.3593 193.0154
L182.3593 193.1583
" />
<path d="M182.3593 193.1583
L181.6451 193.3011
" />
<path d="M183.0022 193.6583
L183.0736 193.7297
" />
<path d="M183.0736 193.7297
L183.0022 193.8011
" />
<path d="M183.0022 193.8011
L182.9308 193.7297
" />
<path d="M182.9308 193.7297
L183.0022 193.6583
" />
<path d="M183.0022 193.6583
L183.0022 193.8011
" />
<path d="M183.0022 192.8726
L183.0736 192.9440
" />
<path d="M183.0736 192.9440
L183.0022 193.0154
" />
<path d="M183.0022 193.0154
L182.9308 192.9440
" />
<path d="M182.9308 192.9440
L183.0022 192.8726
" />
<path d="M183.0022 192.8726
L183.0022 193.0154
" />
<path d="M184.7879 193.3726
L185.5022 193.3726
" />
<path d="M184.6451 193.8011
L185.1451 192.3011
" />
<path d="M185.1451 192.3011
L185.6451 193.8011
" />
<path d="M186.7879 192.8011
L186.7879 193.8011
" />
<path d="M186.4308 192.2297
L186.0736 193.3011
" />
<path d="M186.0736 193.3011
L187.0022 193.3011
" />
</g></g>
<g style="fill:#000000; fill-opacity:0.0; 
stroke:#000000; stroke-width:0.0212; stroke-opacity:1; 
stroke-linecap:round; stroke-linejoin:round;">
</g>
<g style="fill:#000000; fill-opacity:0.0; 
stroke:#000000; stroke-width:0.1500; stroke-opacity:1; 
stroke-linecap:round; stroke-linejoin:round;">
<text x="263.0022" y="196.6572"
textLength="8.4321" font-size="2.0000" lengthAdjust="spacingAndGlyphs"
text-anchor="start" opacity="0">Id: 1/1</text>
<g class="stroked-text"><desc>Id: 1/1</desc>
<path d="M263.3593 196.6011
L263.3593 195.1011
" />
<path d="M264.7165 196.6011
L264.7165 195.1011
" />
<path d="M264.7165 196.5297
L264.5736 196.6011
" />
<path d="M264.5736 196.6011
L264.2879 196.6011
" />
<path d="M264.2879 196.6011
L264.1451 196.5297
" />
<path d="M264.1451 196.5297
L264.0736 196.4583
" />
<path d="M264.0736 196.4583
L264.0022 196.3154
" />
<path d="M264.0022 196.3154
L264.0022 195.8868
" />
<path d="M264.0022 195.8868
L264.0736 195.7440
" />
<path d="M264.0736 195.7440
L264.1451 195.6726
" />
<path d="M264.1451 195.6726
L264.2879 195.6011
" />
<path d="M264.2879 195.6011
L264.5736 195.6011
" />
<path d="M264.5736 195.6011
L264.7165 195.6726
" />
<path d="M265.4308 196.4583
L265.5022 196.5297
" />
<path d="M265.5022 196.5297
L265.4308 196.6011
" />
<path d="M265.4308 196.6011
L265.3593 196.5297
" />
<path d="M265.3593 196.5297
L265.4308 196.4583
" />
<path d="M265.4308 196.4583
L265.4308 196.6011
" />
<path d="M265.4308 195.6726
L265.5022 195.7440
" />
<path d="M265.5022 195.7440
L265.4308 195.8154
" />
<path d="M265.4308 195.8154
L265.3593 195.7440
" />
<path d="M265.3593 195.7440
L265.4308 195.6726
" />
<path d="M265.4308 195.6726
L265.4308 195.8154
" />
<path d="M268.0736 196.6011
L267.2165 196.6011
" />
<path d="M267.6451 196.6011
L267.6451 195.1011
" />
<path d="M267.6451 195.1011
L267.5022 195.3154
" />
<path d="M267.5022 195.3154
L267.3593 195.4583
" />
<path d="M267.3593 195.4583
L267.2165 195.5297
" />
<path d="M269.7879 195.0297
L268.5022 196.9583
" />
<path d="M271.0736 196.6011
L270.2165 196.6011
" />
<path d="M270.6451 196.6011
L270.6451 195.1011
" />
<path d="M270.6451 195.1011
L270.5022 195.3154
" />
<path d="M270.5022 195.3154
L270.3593 195.4583
" />
<path d="M270.3593 195.4583
L270.2165 195.5297
" />
</g></g>
<g style="fill:#000000; fill-opacity:0.0; 
stroke:#000000; stroke-width:0.0212; stroke-opacity:1; 
stroke-linecap:round; stroke-linejoin:round;">
</g>
<g style="fill:#000000; fill-opacity:0.0; 
stroke:#000000; stroke-width:0.1500; stroke-opacity:1; 
stroke-linecap:round; stroke-linejoin:round;">
<path d="M177.0022 187.5072
L285.0022 187.5072
" />
</g>
<g style="fill:#000000; fill-opacity:0.0; 
stroke:#000000; stroke-width:0.0212; stroke-opacity:1; 
stroke-linecap:round; stroke-linejoin:round;">
</g>
<g style="fill:#000000; fill-opacity:0.0; 
stroke:#000000; stroke-width:0.4000; stroke-opacity:1; 
stroke-linecap:round; stroke-linejoin:round;">
<text x="178.0022" y="190.3072"
textLength="9.3857" font-size="2.6667" lengthAdjust="spacingAndGlyphs"
text-anchor="start" opacity="0">Title: </text>
<g class="stroked-text"><desc>Title: </desc>
<path d="M178.4308 188.2324
L179.5736 188.2324
" />
<path d="M178.7522 190.2324
L179.0022 188.2324
" />
<path d="M179.9784 190.2324
L180.1451 188.8991
" />
<path d="M180.2284 188.2324
L180.1212 188.3277
" />
<path d="M180.1212 188.3277
L180.2046 188.4229
" />
<path d="M180.2046 188.4229
L180.3117 188.3277
" />
<path d="M180.3117 188.3277
L180.2284 188.2324
" />
<path d="M180.2284 188.2324
L180.2046 188.4229
" />
<path d="M180.7998 188.8991
L181.5617 188.8991
" />
<path d="M181.1689 188.2324
L180.9546 189.9467
" />
<path d="M180.9546 189.9467
L181.0260 190.1372
" />
<path d="M181.0260 190.1372
L181.2046 190.2324
" />
<path d="M181.2046 190.2324
L181.3951 190.2324
" />
<path d="M182.3355 190.2324
L182.1570 190.1372
" />
<path d="M182.1570 190.1372
L182.0855 189.9467
" />
<path d="M182.0855 189.9467
L182.2998 188.2324
" />
<path d="M183.8593 190.1372
L183.6570 190.2324
" />
<path d="M183.6570 190.2324
L183.2760 190.2324
" />
<path d="M183.2760 190.2324
L183.0974 190.1372
" />
<path d="M183.0974 190.1372
L183.0260 189.9467
" />
<path d="M183.0260 189.9467
L183.1212 189.1848
" />
<path d="M183.1212 189.1848
L183.2403 188.9943
" />
<path d="M183.2403 188.9943
L183.4427 188.8991
" />
<path d="M183.4427 188.8991
L183.8236 188.8991
" />
<path d="M183.8236 188.8991
L184.0022 188.9943
" />
<path d="M184.0022 188.9943
L184.0736 189.1848
" />
<path d="M184.0736 189.1848
L184.0498 189.3753
" />
<path d="M184.0498 189.3753
L183.0736 189.5658
" />
<path d="M184.8117 190.0420
L184.8951 190.1372
" />
<path d="M184.8951 190.1372
L184.7879 190.2324
" />
<path d="M184.7879 190.2324
L184.7046 190.1372
" />
<path d="M184.7046 190.1372
L184.8117 190.0420
" />
<path d="M184.8117 190.0420
L184.7879 190.2324
" />
<path d="M184.9427 188.9943
L185.0260 189.0896
" />
<path d="M185.0260 189.0896
L184.9189 189.1848
" />
<path d="M184.9189 189.1848
L184.8355 189.0896
" />
<path d="M184.8355 189.0896
L184.9427 188.9943
" />
<path d="M184.9427 188.9943
L184.9189 189.1848
" />
</g></g>
<g style="fill:#000000; fill-opacity:0.0; 
stroke:#000000; stroke-width:0.0212; stroke-opacity:1; 
stroke-linecap:round; stroke-linejoin:round;">
</g>
<g style="fill:#000000; fill-opacity:0.0; 
stroke:#000000; stroke-width:0.1500; stroke-opacity:1; 
stroke-linecap:round; stroke-linejoin:round;">
<text x="178.0022" y="186.4572"
textLength="28.7179" font-size="2.0000" lengthAdjust="spacingAndGlyphs"
text-anchor="start" opacity="0">File: controller.kicad_pcb</text>
<g class="stroked-text"><desc>File: controller.kicad_pcb</desc>
<path d="M178.8593 185.6154
L178.3593 185.6154
" />
<path d="M178.3593 186.4011
L178.3593 184.9011
" />
<path d="M178.3593 184.9011
L179.0736 184.9011
" />
<path d="M179.6451 186.4011
L179.6451 185.4011
" />
<path d="M179.6451 184.9011
L179.5736 184.9726
" />
<path d="M179.5736 184.9726
L179.6451 185.0440
" />
<path d="M179.6451 185.0440
L179.7165 184.9726
" />
<path d="M179.7165 184.9726
L179.6451 184.9011
" />
<path d="M179.6451 184.9011
L179.6451 185.0440
" />
<path d="M180.5736 186.4011
L180.4308 186.3297
" />
<path d="M180.4308 186.3297
L180.3593 186.1868
" />
<path d="M180.3593 186.1868
L180.3593 184.9011
" />
<path d="M181.7165 186.3297
L181.5736 186.4011
" />
<path d="M181.5736 186.4011
L181.2879 186.4011
" />
<path d="M181.2879 186.4011
L181.1451 186.3297
" />
<path d="M181.1451 186.3297
L181.0736 186.1868
" />
<path d="M181.0736 186.1868
L181.0736 185.6154
" />
<path d="M181.0736 185.6154
L181.1451 185.4726
" />
<path d="M181.1451 185.4726
L181.2879 185.4011
" />
<path d="M181.2879 185.4011
L181.5736 185.4011
" />
<path d="M181.5736 185.4011
L181.7165 185.4726
" />
<path d="M181.7165 185.4726
L181.7879 185.6154
" />
<path d="M181.7879 185.6154
L181.7879 185.7583
" />
<path d="M181.7879 185.7583
L181.0736 185.9011
" />
<path d="M182.4308 186.2583
L182.5022 186.3297
" />
<path d="M182.5022 186.3297
L182.4308 186.4011
" />
<path d="M182.4308 186.4011
L182.3593 186.3297
" />
<path d="M182.3593 186.3297
L182.4308 186.2583
" />
<path d="M182.4308 186.2583
L182.4308 186.4011
" />
<path d="M182.4308 185.4726
L182.5022 185.5440
" />
<path d="M182.5022 185.5440
L182.4308 185.6154
" />
<path d="M182.4308 185.6154
L182.3593 185.5440
" />
<path d="M182.3593 185.5440
L182.4308 185.4726
" />
<path d="M182.4308 185.4726
L182.4308 185.6154
" />
<path d="M184.9308 186.3297
L184.7879 186.4011
" />
<path d="M184.7879 186.4011
L184.5022 186.4011
" />
<path d="M184.5022 186.4011
L184.3593 186.3297
" />
<path d="M184.3593 186.3297
L184.2879 186.2583
" />
<path d="M184.2879 186.2583
L184.2165 186.1154
" />
<path d="M184.2165 186.1154
L184.2165 185.6868
" />
<path d="M184.2165 185.6868
L184.2879 185.5440
" />
<path d="M184.2879 185.5440
L184.3593 185.4726
" />
<path d="M184.3593 185.4726
L184.5022 185.4011
" />
<path d="M184.5022 185.4011
L184.7879 185.4011
" />
<path d="M184.7879 185.4011
L184.9308 185.4726
" />
<path d="M185.7879 186.4011
L185.6451 186.3297
" />
<path d="M185.6451 186.3297
L185.5736 186.2583
" />
<path d="M185.5736 186.2583
L185.5022 186.1154
" />
<path d="M185.5022 186.1154
L185.5022 185.6868
" />
<path d="M185.5022 185.6868
L185.5736 185.5440
" />
<path d="M185.5736 185.5440
L185.6451 185.4726
" />
<path d="M185.6451 185.4726
L185.7879 185.4011
" />
<path d="M185.7879 185.4011
L186.0022 185.4011
" />
<path d="M186.0022 185.4011
L186.1451 185.4726
" />
<path d="M186.1451 185.4726
L186.2165 185.5440
" />
<path d="M186.2165 185.5440
L186.2879 185.6868
" />
<path d="M186.2879 185.6868
L186.2879 186.1154
" />
<path d="M186.2879 186.1154
L186.2165 186.2583
" />
<path d="M186.2165 186.2583
L186.1451 186.3297
" />
<path d="M186.1451 186.3297
L186.0022 186.4011
" />
<path d="M186.0022 186.4011
L185.7879 186.4011
" />
<path d="M186.9308 185.4011
L186.9308 186.4011
" />
<path d="M186.9308 185.5440
L187.0022 185.4726
" />
<path d="M187.0022 185.4726
L187.1451 185.4011
" />
<path d="M187.1451 185.4011
L187.3593 185.4011
" />
<path d="M187.3593 185.4011
L187.5022 185.4726
" />
<path d="M187.5022 185.4726
L187.5736 185.6154
" />
<path d="M187.5736 185.6154
L187.5736 186.4011
" />
<path d="M188.0736 185.4011
L188.6451 185.4011
" />
<path d="M188.2879 184.9011
L188.2879 186.1868
" />
<path d="M188.2879 186.1868
L188.3593 186.3297
" />
<path d="M188.3593 186.3297
L188.5022 186.4011
" />
<path d="M188.5022 186.4011
L188.6451 186.4011
" />
<path d="M189.1451 186.4011
L189.1451 185.4011
" />
<path d="M189.1451 185.6868
L189.2165 185.5440
" />
<path d="M189.2165 185.5440
L189.2879 185.4726
" />
<path d="M189.2879 185.4726
L189.4308 185.4011
" />
<path d="M189.4308 185.4011
L189.5736 185.4011
" />
<path d="M190.2879 186.4011
L190.1451 186.3297
" />
<path d="M190.1451 186.3297
L190.0736 186.2583
" />
<path d="M190.0736 186.2583
L190.0022 186.1154
" />
<path d="M190.0022 186.1154
L190.0022 185.6868
" />
<path d="M190.0022 185.6868
L190.0736 185.5440
" />
<path d="M190.0736 185.5440
L190.1451 185.4726
" />
<path d="M190.1451 185.4726
L190.2879 185.4011
" />
<path d="M190.2879 185.4011
L190.5022 185.4011
" />
<path d="M190.5022 185.4011
L190.6451 185.4726
" />
<path d="M190.6451 185.4726
L190.7165 185.5440
" />
<path d="M190.7165 185.5440
L190.7879 185.6868
" />
<path d="M190.7879 185.6868
L190.7879 186.1154
" />
<path d="M190.7879 186.1154
L190.7165 186.2583
" />
<path d="M190.7165 186.2583
L190.6451 186.3297
" />
<path d="M190.6451 186.3297
L190.5022 186.4011
" />
<path d="M190.5022 186.4011
L190.2879 186.4011
" />
<path d="M191.6451 186.4011
L191.5022 186.3297
" />
<path d="M191.5022 186.3297
L191.4308 186.1868
" />
<path d="M191.4308 186.1868
L191.4308 184.9011
" />
<path d="M192.4308 186.4011
L192.2879 186.3297
" />
<path d="M192.2879 186.3297
L192.2165 186.1868
" />
<path d="M192.2165 186.1868
L192.2165 184.9011
" />
<path d="M193.5736 186.3297
L193.4308 186.4011
" />
<path d="M193.4308 186.4011
L193.1451 186.4011
" />
<path d="M193.1451 186.4011
L193.0022 186.3297
" />
<path d="M193.0022 186.3297
L192.9308 186.1868
" />
<path d="M192.9308 186.1868
L192.9308 185.6154
" />
<path d="M192.9308 185.6154
L193.0022 185.4726
" />
<path d="M193.0022 185.4726
L193.1451 185.4011
" />
<path d="M193.1451 185.4011
L193.4308 185.4011
" />
<path d="M193.4308 185.4011
L193.5736 185.4726
" />
<path d="M193.5736 185.4726
L193.6451 185.6154
" />
<path d="M193.6451 185.6154
L193.6451 185.7583
" />
<path d="M193.6451 185.7583
L192.9308 185.9011
" />
<path d="M194.2879 186.4011
L194.2879 185.4011
" />
<path d="M194.2879 185.6868
L194.3593 185.5440
" />
<path d="M194.3593 185.5440
L194.4308 185.4726
" />
<path d="M194.4308 185.4726
L194.5736 185.4011
" />
<path d="M194.5736 185.4011
L194.7165 185.4011
" />
<path d="M195.2165 186.2583
L195.2879 186.3297
" />
<path d="M195.2879 186.3297
L195.2165 186.4011
" />
<path d="M195.2165 186.4011
L195.1451 186.3297
" />
<path d="M195.1451 186.3297
L195.2165 186.2583
" />
<path d="M195.2165 186.2583
L195.2165 186.4011
" />
<path d="M195.9308 186.4011
L195.9308 184.9011
" />
<path d="M196.0736 185.8297
L196.5022 186.4011
" />
<path d="M196.5022 185.4011
L195.9308 185.9726
" />
<path d="M197.1451 186.4011
L197.1451 185.4011
" />
<path d="M197.1451 184.9011
L197.0736 184.9726
" />
<path d="M197.0736 184.9726
L197.1451 185.0440
" />
<path d="M197.1451 185.0440
L197.2165 184.9726
" />
<path d="M197.2165 184.9726
L197.1451 184.9011
" />
<path d="M197.1451 184.9011
L197.1451 185.0440
" />
<path d="M198.5022 186.3297
L198.3593 186.4011
" />
<path d="M198.3593 186.4011
L198.0736 186.4011
" />
<path d="M198.0736 186.4011
L197.9308 186.3297
" />
<path d="M197.9308 186.3297
L197.8593 186.2583
" />
<path d="M197.8593 186.2583
L197.7879 186.1154
" />
<path d="M197.7879 186.1154
L197.7879 185.6868
" />
<path d="M197.7879 185.6868
L197.8593 185.5440
" />
<path d="M197.8593 185.5440
L197.9308 185.4726
" />
<path d="M197.9308 185.4726
L198.0736 185.4011
" />
<path d="M198.0736 185.4011
L198.3593 185.4011
" />
<path d="M198.3593 185.4011
L198.5022 185.4726
" />
<path d="M199.7879 186.4011
L199.7879 185.6154
" />
<path d="M199.7879 185.6154
L199.7165 185.4726
" />
<path d="M199.7165 185.4726
L199.5736 185.4011
" />
<path d="M199.5736 185.4011
L199.2879 185.4011
" />
<path d="M199.2879 185.4011
L199.1451 185.4726
" />
<path d="M199.7879 186.3297
L199.6451 186.4011
" />
<path d="M199.6451 186.4011
L199.2879 186.4011
" />
<path d="M199.2879 186.4011
L199.1451 186.3297
" />
<path d="M199.1451 186.3297
L199.0736 186.1868
" />
<path d="M199.0736 186.1868
L199.0736 186.0440
" />
<path d="M199.0736 186.0440
L199.1451 185.9011
" />
<path d="M199.1451 185.9011
L199.2879 185.8297
" />
<path d="M199.2879 185.8297
L199.6451 185.8297
" />
<path d="M199.6451 185.8297
L199.7879 185.7583
" />
<path d="M201.1451 186.4011
L201.1451 184.9011
" />
<path d="M201.1451 186.3297
L201.0022 186.4011
" />
<path d="M201.0022 186.4011
L200.7165 186.4011
" />
<path d="M200.7165 186.4011
L200.5736 186.3297
" />
<path d="M200.5736 186.3297
L200.5022 186.2583
" />
<path d="M200.5022 186.2583
L200.4308 186.1154
" />
<path d="M200.4308 186.1154
L200.4308 185.6868
" />
<path d="M200.4308 185.6868
L200.5022 185.5440
" />
<path d="M200.5022 185.5440
L200.5736 185.4726
" />
<path d="M200.5736 185.4726
L200.7165 185.4011
" />
<path d="M200.7165 185.4011
L201.0022 185.4011
" />
<path d="M201.0022 185.4011
L201.1451 185.4726
" />
<path d="M201.5022 186.5440
L202.6451 186.5440
" />
<path d="M203.0022 185.4011
L203.0022 186.9011
" />
<path d="M203.0022 185.4726
L203.1451 185.4011
" />
<path d="M203.1451 185.4011
L203.4308 185.4011
" />
<path d="M203.4308 185.4011
L203.5736 185.4726
" />
<path d="M203.5736 185.4726
L203.6451 185.5440
" />
<path d="M203.6451 185.5440
L203.7165 185.6868
" />
<path d="M203.7165 185.6868
L203.7165 186.1154
" />
<path d="M203.7165 186.1154
L203.6451 186.2583
" />
<path d="M203.6451 186.2583
L203.5736 186.3297
" />
<path d="M203.5736 186.3297
L203.4308 186.4011
" />
<path d="M203.4308 186.4011
L203.1451 186.4011
" />
<path d="M203.1451 186.4011
L203.0022 186.3297
" />
<path d="M205.0022 186.3297
L204.8593 186.4011
" />
<path d="M204.8593 186.4011
L204.5736 186.4011
" />
<path d="M204.5736 186.4011
L204.4308 186.3297
" />
<path d="M204.4308 186.3297
L204.3593 186.2583
" />
<path d="M204.3593 186.2583
L204.2879 186.1154
" />
<path d="M204.2879 186.1154
L204.2879 185.6868
" />
<path d="M204.2879 185.6868
L204.3593 185.5440
" />
<path d="M204.3593 185.5440
L204.4308 185.4726
" />
<path d="M204.4308 185.4726
L204.5736 185.4011
" />
<path d="M204.5736 185.4011
L204.8593 185.4011
" />
<path d="M204.8593 185.4011
L205.0022 185.4726
" />
<path d="M205.6451 186.4011
L205.6451 184.9011
" />
<path d="M205.6451 185.4726
L205.7879 185.4011
" />
<path d="M205.7879 185.4011
L206.0736 185.4011
" />
<path d="M206.0736 185.4011
L206.2165 185.4726
" />
<path d="M206.2165 185.4726
L206.2879 185.5440
" />
<path d="M206.2879 185.5440
L206.3593 185.6868
" />
<path d="M206.3593 185.6868
L206.3593 186.1154
" />
<path d="M206.3593 186.1154
L206.2879 186.2583
" />
<path d="M206.2879 186.2583
L206.2165 186.3297
" />
<path d="M206.2165 186.3297
L206.0736 186.4011
" />
<path d="M206.0736 186.4011
L205.7879 186.4011
" />
<path d="M205.7879 186.4011
L205.6451 186.3297
" />
</g></g>
<g style="fill:#000000; fill-opacity:0.0; 
stroke:#000000; stroke-width:0.0212; stroke-opacity:1; 
stroke-linecap:round; stroke-linejoin:round;">
</g>
<g style="fill:#000000; fill-opacity:0.0; 
stroke:#000000; stroke-width:0.1500; stroke-opacity:1; 
stroke-linecap:round; stroke-linejoin:round;">
<path d="M177.0022 181.5072
L285.0022 181.5072
" />
</g>
<g style="fill:#000000; fill-opacity:0.0; 
stroke:#000000; stroke-width:0.0212; stroke-opacity:1; 
stroke-linecap:round; stroke-linejoin:round;">
</g>
<g style="fill:#000000; fill-opacity:0.0; 
stroke:#000000; stroke-width:0.1500; stroke-opacity:1; 
stroke-linecap:round; stroke-linejoin:round;">
<text x="178.0022" y="183.7572"
textLength="8.1464" font-size="2.0000" lengthAdjust="spacingAndGlyphs"
text-anchor="start" opacity="0">Sheet: </text>
<g class="stroked-text"><desc>Sheet: </desc>
<path d="M178.2879 183.6297
L178.5022 183.7011
" />
<path d="M178.5022 183.7011
L178.8593 183.7011
" />
<path d="M178.8593 183.7011
L179.0022 183.6297
" />
<path d="M179.0022 183.6297
L179.0736 183.5583
" />
<path d="M179.0736 183.5583
L179.1451 183.4154
" />
<path d="M179.1451 183.4154
L179.1451 183.2726
" />
<path d="M179.1451 183.2726
L179.0736 183.1297
" />
<path d="M179.0736 183.1297
L179.0022 183.0583
" />
<path d="M179.0022 183.0583
L178.8593 182.9868
" />
<path d="M178.8593 182.9868
L178.5736 182.9154
" />
<path d="M178.5736 182.9154
L178.4308 182.8440
" />
<path d="M178.4308 182.8440
L178.3593 182.7726
" />
<path d="M178.3593 182.7726
L178.2879 182.6297
" />
<path d="M178.2879 182.6297
L178.2879 182.4868
" />
<path d="M178.2879 182.4868
L178.3593 182.3440
" />
<path d="M178.3593 182.3440
L178.4308 182.2726
" />
<path d="M178.4308 182.2726
L178.5736 182.2011
" />
<path d="M178.5736 182.2011
L178.9308 182.2011
" />
<path d="M178.9308 182.2011
L179.1451 182.2726
" />
<path d="M179.7879 183.7011
L179.7879 182.2011
" />
<path d="M180.4308 183.7011
L180.4308 182.9154
" />
<path d="M180.4308 182.9154
L180.3593 182.7726
" />
<path d="M180.3593 182.7726
L180.2165 182.7011
" />
<path d="M180.2165 182.7011
L180.0022 182.7011
" />
<path d="M180.0022 182.7011
L179.8593 182.7726
" />
<path d="M179.8593 182.7726
L179.7879 182.8440
" />
<path d="M181.7165 183.6297
L181.5736 183.7011
" />
<path d="M181.5736 183.7011
L181.2879 183.7011
" />
<path d="M181.2879 183.7011
L181.1451 183.6297
" />
<path d="M181.1451 183.6297
L181.0736 183.4868
" />
<path d="M181.0736 183.4868
L181.0736 182.9154
" />
<path d="M181.0736 182.9154
L181.1451 182.7726
" />
<path d="M181.1451 182.7726
L181.2879 182.7011
" />
<path d="M181.2879 182.7011
L181.5736 182.7011
" />
<path d="M181.5736 182.7011
L181.7165 182.7726
" />
<path d="M181.7165 182.7726
L181.7879 182.9154
" />
<path d="M181.7879 182.9154
L181.7879 183.0583
" />
<path d="M181.7879 183.0583
L181.0736 183.2011
" />
<path d="M183.0022 183.6297
L182.8593 183.7011
" />
<path d="M182.8593 183.7011
L182.5736 183.7011
" />
<path d="M182.5736 183.7011
L182.4308 183.6297
" />
<path d="M182.4308 183.6297
L182.3593 183.4868
" />
<path d="M182.3593 183.4868
L182.3593 182.9154
" />
<path d="M182.3593 182.9154
L182.4308 182.7726
" />
<path d="M182.4308 182.7726
L182.5736 182.7011
" />
<path d="M182.5736 182.7011
L182.8593 182.7011
" />
<path d="M182.8593 182.7011
L183.0022 182.7726
" />
<path d="M183.0022 182.7726
L183.0736 182.9154
" />
<path d="M183.0736 182.9154
L183.0736 183.0583
" />
<path d="M183.0736 183.0583
L182.3593 183.2011
" />
<path d="M183.5022 182.7011
L184.0736 182.7011
" />
<path d="M183.7165 182.2011
L183.7165 183.4868
" />
<path d="M183.7165 183.4868
L183.7879 183.6297
" />
<path d="M183.7879 183.6297
L183.9308 183.7011
" />
<path d="M183.9308 183.7011
L184.0736 183.7011
" />
<path d="M184.5736 183.5583
L184.6451 183.6297
" />
<path d="M184.6451 183.6297
L184.5736 183.7011
" />
<path d="M184.5736 183.7011
L184.5022 183.6297
" />
<path d="M184.5022 183.6297
L184.5736 183.5583
" />
<path d="M184.5736 183.5583
L184.5736 183.7011
" />
<path d="M184.5736 182.7726
L184.6451 182.8440
" />
<path d="M184.6451 182.8440
L184.5736 182.9154
" />
<path d="M184.5736 182.9154
L184.5022 182.8440
" />
<path d="M184.5022 182.8440
L184.5736 182.7726
" />
<path d="M184.5736 182.7726
L184.5736 182.9154
" />
</g></g>
<g style="fill:#000000; fill-opacity:0.0; 
stroke:#000000; stroke-width:0.0212; stroke-opacity:1; 
stroke-linecap:round; stroke-linejoin:round;">
</g>
<g style="fill:#000000; fill-opacity:0.0; 
stroke:#000000; stroke-width:0.3000; stroke-opacity:1; 
stroke-linecap:round; stroke-linejoin:round;">
<text x="178.0022" y="180.7572"
textLength="0.7500" font-size="2.0000" lengthAdjust="spacingAndGlyphs"
text-anchor="start" opacity="0"></text>
<g class="stroked-text"><desc></desc>
</g></g>
<g style="fill:#000000; fill-opacity:0.0; 
stroke:#000000; stroke-width:0.0212; stroke-opacity:1; 
stroke-linecap:round; stroke-linejoin:round;">
</g>
<g style="fill:#000000; fill-opacity:0.0; 
stroke:#000000; stroke-width:0.1500; stroke-opacity:1; 
stroke-linecap:round; stroke-linejoin:round;">
<text x="178.0022" y="177.7572"
textLength="0.3750" font-size="2.0000" lengthAdjust="spacingAndGlyphs"
text-anchor="start" opacity="0"></text>
<g class="stroked-text"><desc></desc>
</g></g>
<g style="fill:#000000; fill-opacity:0.0; 
stroke:#000000; stroke-width:0.0212; stroke-opacity:1; 
stroke-linecap:round; stroke-linejoin:round;">
</g>
<g style="fill:#000000; fill-opacity:0.0; 
stroke:#000000; stroke-width:0.1500; stroke-opacity:1; 
stroke-linecap:round; stroke-linejoin:round;">
<text x="178.0022" y="174.7572"
textLength="0.3750" font-size="2.0000" lengthAdjust="spacingAndGlyphs"
text-anchor="start" opacity="0"></text>
<g class="stroked-text"><desc></desc>
</g></g>
<g style="fill:#000000; fill-opacity:0.0; 
stroke:#000000; stroke-width:0.0212; stroke-opacity:1; 
stroke-linecap:round; stroke-linejoin:round;">
</g>
<g style="fill:#000000; fill-opacity:0.0; 
stroke:#000000; stroke-width:0.1500; stroke-opacity:1; 
stroke-linecap:round; stroke-linejoin:round;">
<text x="178.0022" y="171.7572"
textLength="0.3750" font-size="2.0000" lengthAdjust="spacingAndGlyphs"
text-anchor="start" opacity="0"></text>
<g class="stroked-text"><desc></desc>
</g></g>
<g style="fill:#000000; fill-opacity:0.0; 
stroke:#000000; stroke-width:0.0212; stroke-opacity:1; 
stroke-linecap:round; stroke-linejoin:round;">
</g>
<g style="fill:#000000; fill-opacity:0.0; 
stroke:#000000; stroke-width:0.1500; stroke-opacity:1; 
stroke-linecap:round; stroke-linejoin:round;">
<text x="178.0022" y="168.7572"
textLength="0.3750" font-size="2.0000" lengthAdjust="spacingAndGlyphs"
text-anchor="start" opacity="0"></text>
<g class="stroked-text"><desc></desc>
</g></g>
<g style="fill:#000000; fill-opacity:0.0; 
stroke:#000000; stroke-width:0.0212; stroke-opacity:1; 
stroke-linecap:round; stroke-linejoin:round;">
</g>
<g style="fill:#000000; fill-opacity:0.0; 
stroke:#000000; stroke-width:0.1500; stroke-opacity:1; 
stroke-linecap:round; stroke-linejoin:round;">
<path d="M197.0022 191.5072
L197.0022 194.5072
" />
</g>
<g style="fill:#000000; fill-opacity:0.0; 
stroke:#000000; stroke-width:0.0212; stroke-opacity:1; 
stroke-linecap:round; stroke-linejoin:round;">
</g>
<g style="fill:#000000; fill-opacity:0.0; 
stroke:#000000; stroke-width:0.1500; stroke-opacity:1; 
stroke-linecap:round; stroke-linejoin:round;">
<path d="M261.0022 191.5072
L261.0022 198.0072
" />
</g>
<g style="fill:#000000; fill-opacity:0.0; 
stroke:#000000; stroke-width:0.1000; stroke-opacity:1; 
stroke-linecap:round; stroke-linejoin:round;">
<path d="M110.7440 103.3780
L111.8440 103.3780
" />
<path d="M112.2440 103.3780
L113.3440 103.3780
" />
<path d="M113.7440 103.3780
L114.8440 103.3780
" />
<path d="M115.2440 103.3780
L116.3440 103.3780
" />
<path d="M116.7440 103.3780
L117.8440 103.3780
" />
<path d="M118.2440 103.3780
L119.3440 103.3780
" />
<path d="M119.7440 103.3780
L120.8440 103.3780
" />
<path d="M121.2440 103.3780
L122.3440 103.3780
" />
<path d="M122.7440 103.3780
L123.8440 103.3780
" />
<path d="M124.2440 103.3780
L125.3440 103.3780
" />
<path d="M125.7440 103.3780
L126.8440 103.3780
" />
<path d="M127.2440 103.3780
L128.3440 103.3780
" />
<path d="M128.7440 103.3780
L129.8440 103.3780
" />
<path d="M130.2440 103.3780
L131.3440 103.3780
" />
<path d="M131.7440 103.3780
L132.8440 103.3780
" />
<path d="M133.2440 103.3780
L134.3440 103.3780
" />
<path d="M134.7440 103.3780
L135.8440 103.3780
" />
<path d="M136.2440 103.3780
L137.3440 103.3780
" />
<path d="M137.7440 103.3780
L138.8440 103.3780
" />
<path d="M139.2440 103.3780
L140.3440 103.3780
" />
<path d="M140.7440 103.3780
L141.8440 103.3780
" />
<path d="M142.2440 103.3780
L143.3440 103.3780
" />
<path d="M143.7440 103.3780
L144.8440 103.3780
" />
<path d="M145.2440 103.3780
L146.3440 103.3780
" />
<path d="M146.7440 103.3780
L147.8440 103.3780
" />
<path d="M148.2440 103.3780
L149.3440 103.3780
" />
<path d="M149.7440 103.3780
L150.8440 103.3780
" />
<path d="M151.2440 103.3780
L152.3440 103.3780
" />
<path d="M152.7440 103.3780
L153.8440 103.3780
" />
<path d="M154.2440 103.3780
L155.3440 103.3780
" />
<path d="M155.7440 103.3780
L156.8440 103.3780
" />
<path d="M157.2440 103.3780
L158.3440 103.3780
" />
<path d="M158.7440 103.3780
L159.8440 103.3780
" />
<path d="M160.2440 103.3780
L161.3440 103.3780
" />
<path d="M161.7440 103.3780
L162.8440 103.3780
" />
<path d="M163.2440 103.3780
L164.3440 103.3780
" />
<path d="M164.7440 103.3780
L165.8440 103.3780
" />
<path d="M166.2440 103.3780
L167.3440 103.3780
" />
<path d="M167.7440 103.3780
L168.8440 103.3780
" />
<path d="M169.2440 103.3780
L170.3440 103.3780
" />
<path d="M170.7440 103.3780
L171.8440 103.3780
" />
<path d="M172.2440 103.3780
L173.3440 103.3780
" />
<path d="M173.7440 103.3780
L174.8440 103.3780
" />
<path d="M175.2440 103.3780
L176.3440 103.3780
" />
<path d="M176.7440 103.3780
L177.8440 103.3780
" />
<path d="M178.2440 103.3780
L179.3440 103.3780
" />
<path d="M179.7440 103.3780
L180.8440 103.3780
" />
<path d="M181.2440 103.3780
L182.3440 103.3780
" />
<path d="M182.7440 103.3780
L183.8440 103.3780
" />
<path d="M184.2440 103.3780
L184.7581 103.3780
" />
<path d="M147.7440 78.8780
L147.7440 79.9780
" />
<path d="M147.7440 80.3780
L147.7440 81.4780
" />
<path d="M147.7440 81.8780
L147.7440 82.9780
" />
<path d="M147.7440 83.3780
L147.7440 84.4780
" />
<path d="M147.7440 84.8780
L147.7440 85.9780
" />
<path d="M147.7440 86.3780
L147.7440 87.4780
" />
<path d="M147.7440 87.8780
L147.7440 88.9780
" />
<path d="M147.7440 89.3780
L147.7440 90.4780
" />
<path d="M147.7440 90.8780
L147.7440 91.9780
" />
<path d="M147.7440 92.3780
L147.7440 93.4780
" />
<path d="M147.7440 93.8780
L147.7440 94.9780
" />
<path d="M147.7440 95.3780
L147.7440 96.4780
" />
<path d="M147.7440 96.8780
L147.7440 97.9780
" />
<path d="M147.7440 98.3780
L147.7440 99.4780
" />
<path d="M147.7440 99.8780
L147.7440 100.9780
" />
<path d="M147.7440 101.3780
L147.7440 102.4780
" />
<path d="M147.7440 102.8780
L147.7440 103.9780
" />
<path d="M147.7440 104.3780
L147.7440 105.4780
" />
<path d="M147.7440 105.8780
L147.7440 106.9780
" />
<path d="M147.7440 107.3780
L147.7440 108.4780
" />
<path d="M147.7440 108.8780
L147.7440 109.9780
" />
<path d="M147.7440 110.3780
L147.7440 111.4780
" />
<path d="M147.7440 111.8780
L147.7440 112.9780
" />
<path d="M147.7440 113.3780
L147.7440 114.4780
" />
<path d="M147.7440 114.8780
L147.7440 115.9780
" />
<path d="M147.7440 116.3780
L147.7440 117.4780
" />
<path d="M147.7440 117.8780
L147.7440 118.9780
" />
<path d="M147.7440 119.3780
L147.7440 120.4780
" />
<path d="M147.7440 120.8780
L147.7440 121.9780
" />
<path d="M147.7440 122.3780
L147.7440 123.4780
" />
<path d="M147.7440 123.8780
L147.7440 124.9780
" />
<path d="M147.7440 125.3780
L147.7440 126.4780
" />
<path d="M147.7440 126.8780
L147.7440 127.9780
" />
<path d="M147.7440 128.3780
L147.7440 128.8780
" />
<path d="M178.7440 84.8780
L178.7440 85.9780
" />
<path d="M178.7440 86.3780
L178.7440 87.4780
" />
<path d="M178.7440 87.8780
L178.7440 88.9780
" />
<path d="M178.7440 89.3780
L178.7440 90.4780
" />
<path d="M178.7440 90.8780
L178.7440 91.9780
" />
<path d="M178.7440 92.3780
L178.7440 93.4780
" />
<path d="M178.7440 93.8780
L178.7440 94.9780
" />
<path d="M178.7440 95.3780
L178.7440 96.4780
" />
<path d="M178.7440 96.8780
L178.7440 97.9780
" />
<path d="M178.7440 98.3780
L178.7440 99.4780
" />
<path d="M178.7440 99.8780
L178.7440 100.9780
" />
<path d="M178.7440 101.3780
L178.7440 102.4780
" />
<path d="M178.7440 102.8780
L178.7440 103.9780
" />
<path d="M178.7440 104.3780
L178.7440 105.4780
" />
<path d="M178.7440 105.8780
L178.7440 106.9780
" />
<path d="M178.7440 107.3780
L178.7440 108.4780
" />
<path d="M178.7440 108.8780
L178.7440 109.9780
" />
<path d="M178.7440 110.3780
L178.7440 111.4780
" />
<path d="M178.7440 111.8780
L178.7440 112.9780
" />
<path d="M178.7440 113.3780
L178.7440 114.4780
" />
<path d="M178.7440 114.8780
L178.7440 115.9780
" />
<path d="M178.7440 116.3780
L178.7440 117.4780
" />
<path d="M178.7440 117.8780
L178.7440 118.9780
" />
<path d="M178.7440 119.3780
L178.7440 120.4780
" />
<path d="M178.7440 120.8780
L178.7440 121.8780
" />
<path d="M116.7440 121.8780
L117.8440 121.8780
" />
<path d="M118.2440 121.8780
L119.3440 121.8780
" />
<path d="M119.7440 121.8780
L120.8440 121.8780
" />
<path d="M121.2440 121.8780
L122.3440 121.8780
" />
<path d="M122.7440 121.8780
L123.8440 121.8780
" />
<path d="M124.2440 121.8780
L125.3440 121.8780
" />
<path d="M125.7440 121.8780
L126.8440 121.8780
" />
<path d="M127.2440 121.8780
L128.3440 121.8780
" />
<path d="M128.7440 121.8780
L129.8440 121.8780
" />
<path d="M130.2440 121.8780
L131.3440 121.8780
" />
<path d="M131.7440 121.8780
L132.8440 121.8780
" />
<path d="M133.2440 121.8780
L134.3440 121.8780
" />
<path d="M134.7440 121.8780
L135.8440 121.8780
" />
<path d="M136.2440 121.8780
L137.3440 121.8780
" />
<path d="M137.7440 121.8780
L138.8440 121.8780
" />
<path d="M139.2440 121.8780
L140.3440 121.8780
" />
<path d="M140.7440 121.8780
L141.8440 121.8780
" />
<path d="M142.2440 121.8780
L143.3440 121.8780
" />
<path d="M143.7440 121.8780
L144.8440 121.8780
" />
<path d="M145.2440 121.8780
L146.3440 121.8780
" />
<path d="M146.7440 121.8780
L147.8440 121.8780
" />
<path d="M148.2440 121.8780
L149.3440 121.8780
" />
<path d="M149.7440 121.8780
L150.8440 121.8780
" />
<path d="M151.2440 121.8780
L152.3440 121.8780
" />
<path d="M152.7440 121.8780
L153.8440 121.8780
" />
<path d="M154.2440 121.8780
L155.3440 121.8780
" />
<path d="M155.7440 121.8780
L156.8440 121.8780
" />
<path d="M157.2440 121.8780
L158.3440 121.8780
" />
<path d="M158.7440 121.8780
L159.8440 121.8780
" />
<path d="M160.2440 121.8780
L161.3440 121.8780
" />
<path d="M161.7440 121.8780
L162.8440 121.8780
" />
<path d="M163.2440 121.8780
L164.3440 121.8780
" />
<path d="M164.7440 121.8780
L165.8440 121.8780
" />
<path d="M166.2440 121.8780
L167.3440 121.8780
" />
<path d="M167.7440 121.8780
L168.8440 121.8780
" />
<path d="M169.2440 121.8780
L170.3440 121.8780
" />
<path d="M170.7440 121.8780
L171.8440 121.8780
" />
<path d="M172.2440 121.8780
L173.3440 121.8780
" />
<path d="M173.7440 121.8780
L174.8440 121.8780
" />
<path d="M175.2440 121.8780
L176.3440 121.8780
" />
<path d="M176.7440 121.8780
L177.8440 121.8780
" />
<path d="M178.2440 121.8780
L178.7440 121.8780
" />
<path d="M116.7440 84.8780
L116.7440 85.9780
" />
<path d="M116.7440 86.3780
L116.7440 87.4780
" />
<path d="M116.7440 87.8780
L116.7440 88.9780
" />
<path d="M116.7440 89.3780
L116.7440 90.4780
" />
<path d="M116.7440 90.8780
L116.7440 91.9780
" />
<path d="M116.7440 92.3780
L116.7440 93.4780
" />
<path d="M116.7440 93.8780
L116.7440 94.9780
" />
<path d="M116.7440 95.3780
L116.7440 96.4780
" />
<path d="M116.7440 96.8780
L116.7440 97.9780
" />
<path d="M116.7440 98.3780
L116.7440 99.4780
" />
<path d="M116.7440 99.8780
L116.7440 100.9780
" />
<path d="M116.7440 101.3780
L116.7440 102.4780
" />
<path d="M116.7440 102.8780
L116.7440 103.9780
" />
<path d="M116.7440 104.3780
L116.7440 105.4780
" />
<path d="M116.7440 105.8780
L116.7440 106.9780
" />
<path d="M116.7440 107.3780
L116.7440 108.4780
" />
<path d="M116.7440 108.8780
L116.7440 109.9780
" />
<path d="M116.7440 110.3780
L116.7440 111.4780
" />
<path d="M116.7440 111.8780
L116.7440 112.9780
" />
<path d="M116.7440 113.3780
L116.7440 114.4780
" />
<path d="M116.7440 114.8780
L116.7440 115.9780
" />
<path d="M116.7440 116.3780
L116.7440 117.4780
" />
<path d="M116.7440 117.8780
L116.7440 118.9780
" />
<path d="M116.7440 119.3780
L116.7440 120.4780
" />
<path d="M116.7440 120.8780
L116.7440 121.8780
" />
<path d="M116.7440 84.8780
L117.8440 84.8780
" />
<path d="M118.2440 84.8780
L119.3440 84.8780
" />
<path d="M119.7440 84.8780
L120.8440 84.8780
" />
<path d="M121.2440 84.8780
L122.3440 84.8780
" />
<path d="M122.7440 84.8780
L123.8440 84.8780
" />
<path d="M124.2440 84.8780
L125.3440 84.8780
" />
<path d="M125.7440 84.8780
L126.8440 84.8780
" />
<path d="M127.2440 84.8780
L128.3440 84.8780
" />
<path d="M128.7440 84.8780
L129.8440 84.8780
" />
<path d="M130.2440 84.8780
L131.3440 84.8780
" />
<path d="M131.7440 84.8780
L132.8440 84.8780
" />
<path d="M133.2440 84.8780
L134.3440 84.8780
" />
<path d="M134.7440 84.8780
L135.8440 84.8780
" />
<path d="M136.2440 84.8780
L137.3440 84.8780
" />
<path d="M137.7440 84.8780
L138.8440 84.8780
" />
<path d="M139.2440 84.8780
L140.3440 84.8780
" />
<path d="M140.7440 84.8780
L141.8440 84.8780
" />
<path d="M142.2440 84.8780
L143.3440 84.8780
" />
<path d="M143.7440 84.8780
L144.8440 84.8780
" />
<path d="M145.2440 84.8780
L146.3440 84.8780
" />
<path d="M146.7440 84.8780
L147.8440 84.8780
" />
<path d="M148.2440 84.8780
L149.3440 84.8780
" />
<path d="M149.7440 84.8780
L150.8440 84.8780
" />
<path d="M151.2440 84.8780
L152.3440 84.8780
" />
<path d="M152.7440 84.8780
L153.8440 84.8780
" />
<path d="M154.2440 84.8780
L155.3440 84.8780
" />
<path d="M155.7440 84.8780
L156.8440 84.8780
" />
<path d="M157.2440 84.8780
L158.3440 84.8780
" />
<path d="M158.7440 84.8780
L159.8440 84.8780
" />
<path d="M160.2440 84.8780
L161.3440 84.8780
" />
<path d="M161.7440 84.8780
L162.8440 84.8780
" />
<path d="M163.2440 84.8780
L164.3440 84.8780
" />
<path d="M164.7440 84.8780
L165.8440 84.8780
" />
<path d="M166.2440 84.8780
L167.3440 84.8780
" />
<path d="M167.7440 84.8780
L168.8440 84.8780
" />
<path d="M169.2440 84.8780
L170.3440 84.8780
" />
<path d="M170.7440 84.8780
L171.8440 84.8780
" />
<path d="M172.2440 84.8780
L173.3440 84.8780
" />
<path d="M173.7440 84.8780
L174.8440 84.8780
" />
<path d="M175.2440 84.8780
L176.3440 84.8780
" />
<path d="M176.7440 84.8780
L177.8440 84.8780
" />
<path d="M178.2440 84.8780
L178.7440 84.8780
" />
<path d="M176.2440 122.8530
L176.0726 123.9350
" />
<path d="M175.9275 124.3075
L175.3219 125.2204
" />
<path d="M175.0351 125.4989
L174.1049 126.0776
" />
<path d="M173.7283 126.2117
L172.6418 126.3515
" />
<path d="M172.2435 126.3170
L171.1972 125.9926
" />
<path d="M170.8492 125.7958
L170.0323 125.0659
" />
<path d="M169.7977 124.7422
L169.3580 123.7388
" />
<path d="M169.2790 123.3469
L169.2961 122.2516
" />
<path d="M169.3871 121.8623
L169.8578 120.8731
" />
<path d="M170.1024 120.5569
L170.9416 119.8527
" />
<path d="M171.2955 119.6668
L172.3515 119.3751
" />
<path d="M172.7506 119.3530
L173.8323 119.5265
" />
<path d="M174.2045 119.6723
L175.1163 120.2796
" />
<path d="M175.3943 120.5669
L175.9711 121.4982
" />
<path d="M176.1046 121.8750
L176.2440 122.8530
" />
<path d="M183.2190 103.3780
L183.0476 104.4600
" />
<path d="M182.9025 104.8325
L182.2969 105.7454
" />
<path d="M182.0101 106.0239
L181.0799 106.6026
" />
<path d="M180.7033 106.7367
L179.6168 106.8765
" />
<path d="M179.2185 106.8420
L178.1722 106.5176
" />
<path d="M177.8242 106.3208
L177.0073 105.5909
" />
<path d="M176.7727 105.2672
L176.3330 104.2638
" />
<path d="M176.2540 103.8719
L176.2711 102.7766
" />
<path d="M176.3621 102.3873
L176.8328 101.3981
" />
<path d="M177.0774 101.0819
L177.9166 100.3777
" />
<path d="M178.2705 100.1918
L179.3265 99.9001
" />
<path d="M179.7256 99.8780
L180.8073 100.0515
" />
<path d="M181.1795 100.1973
L182.0913 100.8046
" />
<path d="M182.3693 101.0919
L182.9461 102.0232
" />
<path d="M183.0796 102.4000
L183.2190 103.3780
" />
<path d="M176.2440 83.9030
L176.0726 84.9850
" />
<path d="M175.9275 85.3575
L175.3219 86.2704
" />
<path d="M175.0351 86.5489
L174.1049 87.1276
" />
<path d="M173.7283 87.2617
L172.6418 87.4015
" />
<path d="M172.2435 87.3670
L171.1972 87.0426
" />
<path d="M170.8492 86.8458
L170.0323 86.1159
" />
<path d="M169.7977 85.7922
L169.3580 84.7888
" />
<path d="M169.2790 84.3969
L169.2961 83.3016
" />
<path d="M169.3871 82.9123
L169.8578 81.9231
" />
<path d="M170.1024 81.6069
L170.9416 80.9027
" />
<path d="M171.2955 80.7168
L172.3515 80.4251
" />
<path d="M172.7506 80.4030
L173.8323 80.5765
" />
<path d="M174.2045 80.7223
L175.1163 81.3296
" />
<path d="M175.3943 81.6169
L175.9711 82.5482
" />
<path d="M176.1046 82.9250
L176.2440 83.9030
" />
<path d="M126.2440 122.8530
L126.0726 123.9350
" />
<path d="M125.9275 124.3075
L125.3219 125.2204
" />
<path d="M125.0351 125.4989
L124.1049 126.0776
" />
<path d="M123.7283 126.2117
L122.6418 126.3515
" />
<path d="M122.2435 126.3170
L121.1972 125.9926
" />
<path d="M120.8492 125.7958
L120.0323 125.0659
" />
<path d="M119.7977 124.7422
L119.3580 123.7388
" />
<path d="M119.2790 123.3469
L119.2961 122.2516
" />
<path d="M119.3871 121.8623
L119.8578 120.8731
" />
<path d="M120.1024 120.5569
L120.9416 119.8527
" />
<path d="M121.2955 119.6668
L122.3515 119.3751
" />
<path d="M122.7506 119.3530
L123.8323 119.5265
" />
<path d="M124.2045 119.6723
L125.1163 120.2796
" />
<path d="M125.3943 120.5669
L125.9711 121.4982
" />
<path d="M126.1046 121.8750
L126.2440 122.8530
" />
<path d="M126.2440 83.9030
L126.0726 84.9850
" />
<path d="M125.9275 85.3575
L125.3219 86.2704
" />
<path d="M125.0351 86.5489
L124.1049 87.1276
" />
<path d="M123.7283 87.2617
L122.6418 87.4015
" />
<path d="M122.2435 87.3670
L121.1972 87.0426
" />
<path d="M120.8492 86.8458
L120.0323 86.1159
" />
<path d="M119.7977 85.7922
L119.3580 84.7888
" />
<path d="M119.2790 84.3969
L119.2961 83.3016
" />
<path d="M119.3871 82.9123
L119.8578 81.9231
" />
<path d="M120.1024 81.6069
L120.9416 80.9027
" />
<path d="M121.2955 80.7168
L122.3515 80.4251
" />
<path d="M122.7506 80.4030
L123.8323 80.5765
" />
<path d="M124.2045 80.7223
L125.1163 81.3296
" />
<path d="M125.3943 81.6169
L125.9711 82.5482
" />
<path d="M126.1046 82.9250
L126.2440 83.9030
" />
<path d="M119.2690 103.3780
L119.0976 104.4600
" />
<path d="M118.9525 104.8325
L118.3469 105.7454
" />
<path d="M118.0601 106.0239
L117.1299 106.6026
" />
<path d="M116.7533 106.7367
L115.6668 106.8765
" />
<path d="M115.2685 106.8420
L114.2222 106.5176
" />
<path d="M113.8742 106.3208
L113.0573 105.5909
" />
<path d="M112.8227 105.2672
L112.3830 104.2638
" />
<path d="M112.3040 103.8719
L112.3211 102.7766
" />
<path d="M112.4121 102.3873
L112.8828 101.3981
" />
<path d="M113.1274 101.0819
L113.9666 100.3777
" />
<path d="M114.3205 100.1918
L115.3765 99.9001
" />
<path d="M115.7756 99.8780
L116.8573 100.0515
" />
<path d="M117.2295 100.1973
L118.1413 100.8046
" />
<path d="M118.4193 101.0919
L118.9962 102.0232
" />
<path d="M119.1296 102.4000
L119.2690 103.3780
" />
<g >
</g>
<g >
</g>
<g >
</g>
</g> 
</svg>
